<?xml version="1.0" encoding="UTF-8"?>
<svg xmlns="http://www.w3.org/2000/svg" xmlns:xlink="http://www.w3.org/1999/xlink" width="50pt" height="50pt" viewBox="0 0 50 50" version="1.1">
<g id="surface1">
<path style=" stroke:none;fill-rule:nonzero;fill:rgb(0%,0%,0%);fill-opacity:1;" d="M 46.589844 43.019531 C 48.46875 43.019531 50 41.488281 50 39.609375 L 50 4.882812 C 50 2.191406 47.808594 0 45.117188 0 L 4.882812 0 C 2.191406 0 0 2.191406 0 4.882812 L 0 39.609375 C 0 41.488281 1.53125 43.019531 3.410156 43.019531 L 4.492188 43.019531 L 4.492188 48.046875 L 0.976562 48.046875 C 0.4375 48.046875 0 48.484375 0 49.023438 C 0 49.5625 0.4375 50 0.976562 50 L 49.023438 50 C 49.5625 50 50 49.5625 50 49.023438 C 50 48.484375 49.5625 48.046875 49.023438 48.046875 L 45.507812 48.046875 L 45.507812 43.019531 Z M 1.953125 4.882812 C 1.953125 3.265625 3.265625 1.953125 4.882812 1.953125 L 45.117188 1.953125 C 46.734375 1.953125 48.046875 3.265625 48.046875 4.882812 L 48.046875 7.03125 L 2.050781 7.03125 C 2.019531 7.03125 1.984375 7.03125 1.953125 7.035156 Z M 10.742188 48.046875 L 6.445312 48.046875 L 6.445312 39.257812 L 10.742188 39.257812 Z M 21.679688 48.046875 L 17.382812 48.046875 L 17.382812 28.460938 L 21.679688 28.460938 Z M 32.617188 48.046875 L 28.320312 48.046875 L 28.320312 36.71875 L 32.617188 36.71875 Z M 44.53125 25.046875 L 38.28125 25.046875 C 37.742188 25.046875 37.304688 25.484375 37.304688 26.023438 L 37.304688 30.957031 C 37.304688 31.496094 37.742188 31.933594 38.28125 31.933594 C 38.820312 31.933594 39.257812 31.496094 39.257812 30.957031 L 39.257812 27 L 43.554688 27 L 43.554688 48.046875 L 39.257812 48.046875 L 39.257812 37.523438 C 39.257812 36.984375 38.820312 36.546875 38.28125 36.546875 C 37.742188 36.546875 37.304688 36.984375 37.304688 37.523438 L 37.304688 48.046875 L 34.570312 48.046875 L 34.570312 35.742188 C 34.570312 35.203125 34.132812 34.765625 33.59375 34.765625 L 27.34375 34.765625 C 26.804688 34.765625 26.367188 35.203125 26.367188 35.742188 L 26.367188 48.046875 L 23.632812 48.046875 L 23.632812 27.484375 C 23.632812 26.945312 23.195312 26.507812 22.65625 26.507812 L 16.40625 26.507812 C 15.867188 26.507812 15.429688 26.945312 15.429688 27.484375 L 15.429688 48.046875 L 12.695312 48.046875 L 12.695312 38.28125 C 12.695312 37.742188 12.257812 37.304688 11.71875 37.304688 L 5.46875 37.304688 C 4.929688 37.304688 4.492188 37.742188 4.492188 38.28125 L 4.492188 41.066406 L 3.410156 41.066406 C 2.605469 41.066406 1.953125 40.410156 1.953125 39.609375 L 1.953125 8.980469 C 1.984375 8.984375 2.019531 8.984375 2.050781 8.984375 L 48.046875 8.984375 L 48.046875 39.609375 C 48.046875 40.410156 47.394531 41.066406 46.589844 41.066406 L 45.507812 41.066406 L 45.507812 26.023438 C 45.507812 25.484375 45.070312 25.046875 44.53125 25.046875 Z M 44.53125 25.046875 "/>
<path style=" stroke:none;fill-rule:nonzero;fill:rgb(0%,0%,0%);fill-opacity:1;" d="M 43.75 3.515625 L 21.6875 3.515625 C 21.148438 3.515625 20.710938 3.953125 20.710938 4.492188 C 20.710938 5.03125 21.148438 5.46875 21.6875 5.46875 L 43.75 5.46875 C 44.289062 5.46875 44.726562 5.03125 44.726562 4.492188 C 44.726562 3.953125 44.289062 3.515625 43.75 3.515625 Z M 43.75 3.515625 "/>
<path style=" stroke:none;fill-rule:nonzero;fill:rgb(0%,0%,0%);fill-opacity:1;" d="M 10.847656 3.800781 C 10.664062 3.621094 10.414062 3.515625 10.15625 3.515625 C 9.898438 3.515625 9.648438 3.621094 9.464844 3.800781 C 9.285156 3.984375 9.179688 4.234375 9.179688 4.492188 C 9.179688 4.75 9.285156 5 9.464844 5.183594 C 9.648438 5.363281 9.898438 5.46875 10.15625 5.46875 C 10.414062 5.46875 10.664062 5.363281 10.847656 5.183594 C 11.027344 5 11.132812 4.75 11.132812 4.492188 C 11.132812 4.234375 11.027344 3.984375 10.847656 3.800781 Z M 10.847656 3.800781 "/>
<path style=" stroke:none;fill-rule:nonzero;fill:rgb(0%,0%,0%);fill-opacity:1;" d="M 6.941406 3.800781 C 6.757812 3.621094 6.507812 3.515625 6.25 3.515625 C 5.992188 3.515625 5.742188 3.621094 5.558594 3.800781 C 5.378906 3.984375 5.273438 4.234375 5.273438 4.492188 C 5.273438 4.75 5.378906 5 5.558594 5.183594 C 5.742188 5.363281 5.992188 5.46875 6.25 5.46875 C 6.507812 5.46875 6.757812 5.363281 6.941406 5.183594 C 7.121094 5 7.226562 4.75 7.226562 4.492188 C 7.226562 4.234375 7.121094 3.984375 6.941406 3.800781 Z M 6.941406 3.800781 "/>
<path style=" stroke:none;fill-rule:nonzero;fill:rgb(0%,0%,0%);fill-opacity:1;" d="M 14.753906 3.800781 C 14.570312 3.621094 14.320312 3.515625 14.0625 3.515625 C 13.804688 3.515625 13.554688 3.621094 13.371094 3.800781 C 13.191406 3.984375 13.085938 4.234375 13.085938 4.492188 C 13.085938 4.75 13.191406 5 13.371094 5.183594 C 13.554688 5.363281 13.804688 5.46875 14.0625 5.46875 C 14.320312 5.46875 14.570312 5.363281 14.753906 5.183594 C 14.933594 5 15.039062 4.75 15.039062 4.492188 C 15.039062 4.234375 14.933594 3.984375 14.753906 3.800781 Z M 14.753906 3.800781 "/>
<path style=" stroke:none;fill-rule:nonzero;fill:rgb(0%,0%,0%);fill-opacity:1;" d="M 38.972656 33.746094 C 38.789062 33.5625 38.539062 33.460938 38.28125 33.460938 C 38.023438 33.460938 37.773438 33.566406 37.589844 33.746094 C 37.410156 33.929688 37.304688 34.179688 37.304688 34.4375 C 37.304688 34.695312 37.410156 34.945312 37.589844 35.128906 C 37.773438 35.308594 38.023438 35.414062 38.28125 35.414062 C 38.539062 35.414062 38.789062 35.308594 38.972656 35.128906 C 39.152344 34.945312 39.257812 34.695312 39.257812 34.4375 C 39.257812 34.179688 39.152344 33.929688 38.972656 33.746094 Z M 38.972656 33.746094 "/>
<path style=" stroke:none;fill-rule:nonzero;fill:rgb(0%,0%,0%);fill-opacity:1;" d="M 41.40625 13.273438 C 39.46875 13.273438 37.890625 14.851562 37.890625 16.789062 C 37.890625 17.5625 38.140625 18.273438 38.5625 18.851562 L 32.074219 25.339844 C 31.570312 25.0625 30.992188 24.902344 30.378906 24.902344 C 29.824219 24.902344 29.300781 25.03125 28.832031 25.261719 L 22.058594 18.488281 C 22.339844 17.984375 22.496094 17.40625 22.496094 16.789062 C 22.496094 14.851562 20.921875 13.273438 18.980469 13.273438 C 17.042969 13.273438 15.464844 14.851562 15.464844 16.789062 C 15.464844 17.46875 15.660156 18.101562 15.992188 18.640625 L 10.226562 24.40625 C 9.722656 24.125 9.144531 23.96875 8.527344 23.96875 C 6.589844 23.96875 5.011719 25.542969 5.011719 27.484375 C 5.011719 29.421875 6.589844 31 8.527344 31 C 10.46875 31 12.042969 29.421875 12.042969 27.484375 C 12.042969 26.867188 11.886719 26.289062 11.605469 25.785156 L 17.441406 19.949219 C 17.90625 20.179688 18.429688 20.304688 18.980469 20.304688 C 19.597656 20.304688 20.175781 20.148438 20.679688 19.867188 L 27.386719 26.574219 C 27.054688 27.113281 26.863281 27.742188 26.863281 28.417969 C 26.863281 30.355469 28.4375 31.933594 30.378906 31.933594 C 32.316406 31.933594 33.894531 30.355469 33.894531 28.417969 C 33.894531 27.800781 33.734375 27.222656 33.457031 26.722656 L 40.117188 20.058594 C 40.515625 20.21875 40.949219 20.304688 41.40625 20.304688 C 43.34375 20.304688 44.921875 18.730469 44.921875 16.789062 C 44.921875 14.851562 43.34375 13.273438 41.40625 13.273438 Z M 8.527344 29.046875 C 7.667969 29.046875 6.964844 28.34375 6.964844 27.484375 C 6.964844 26.621094 7.667969 25.921875 8.527344 25.921875 C 9.390625 25.921875 10.089844 26.621094 10.089844 27.484375 C 10.089844 28.34375 9.390625 29.046875 8.527344 29.046875 Z M 18.980469 18.351562 C 18.121094 18.351562 17.417969 17.652344 17.417969 16.789062 C 17.417969 15.929688 18.121094 15.226562 18.980469 15.226562 C 19.84375 15.226562 20.542969 15.929688 20.542969 16.789062 C 20.542969 17.652344 19.84375 18.351562 18.980469 18.351562 Z M 30.378906 29.980469 C 29.515625 29.980469 28.816406 29.28125 28.816406 28.417969 C 28.816406 27.554688 29.515625 26.855469 30.378906 26.855469 C 31.238281 26.855469 31.941406 27.554688 31.941406 28.417969 C 31.941406 29.28125 31.238281 29.980469 30.378906 29.980469 Z M 41.40625 18.351562 C 40.542969 18.351562 39.84375 17.652344 39.84375 16.789062 C 39.84375 15.929688 40.542969 15.226562 41.40625 15.226562 C 42.269531 15.226562 42.96875 15.929688 42.96875 16.789062 C 42.96875 17.652344 42.269531 18.351562 41.40625 18.351562 Z M 41.40625 18.351562 "/>
<path style=" stroke:none;fill-rule:nonzero;fill:rgb(0%,0%,0%);fill-opacity:1;" d="M 14.484375 12.59375 C 14.304688 12.410156 14.050781 12.308594 13.796875 12.308594 C 13.539062 12.308594 13.285156 12.410156 13.101562 12.59375 C 12.921875 12.773438 12.820312 13.027344 12.820312 13.285156 C 12.820312 13.539062 12.921875 13.792969 13.101562 13.972656 C 13.285156 14.15625 13.539062 14.261719 13.796875 14.261719 C 14.050781 14.261719 14.304688 14.15625 14.484375 13.972656 C 14.667969 13.792969 14.773438 13.539062 14.773438 13.285156 C 14.773438 13.027344 14.667969 12.773438 14.484375 12.59375 Z M 14.484375 12.59375 "/>
<path style=" stroke:none;fill-rule:nonzero;fill:rgb(0%,0%,0%);fill-opacity:1;" d="M 10.15625 12.308594 L 5.46875 12.308594 C 4.929688 12.308594 4.492188 12.742188 4.492188 13.285156 C 4.492188 13.824219 4.929688 14.261719 5.46875 14.261719 L 10.15625 14.261719 C 10.695312 14.261719 11.132812 13.824219 11.132812 13.285156 C 11.132812 12.742188 10.695312 12.308594 10.15625 12.308594 Z M 10.15625 12.308594 "/>
<path style=" stroke:none;fill-rule:nonzero;fill:rgb(0%,0%,0%);fill-opacity:1;" d="M 10.15625 16.996094 L 5.46875 16.996094 C 4.929688 16.996094 4.492188 17.429688 4.492188 17.972656 C 4.492188 18.511719 4.929688 18.949219 5.46875 18.949219 L 10.15625 18.949219 C 10.695312 18.949219 11.132812 18.511719 11.132812 17.972656 C 11.132812 17.429688 10.695312 16.996094 10.15625 16.996094 Z M 10.15625 16.996094 "/>
</g>
</svg>
