<?xml version="1.0" encoding="UTF-8"?>
<svg xmlns="http://www.w3.org/2000/svg" xmlns:xlink="http://www.w3.org/1999/xlink" width="50pt" height="50pt" viewBox="0 0 50 50" version="1.1">
<g id="surface1">
<path style=" stroke:none;fill-rule:nonzero;fill:rgb(0%,0%,0%);fill-opacity:1;" d="M 12.464844 3.632812 C 12 3.238281 11.316406 3.242188 10.855469 3.644531 L 7.503906 6.648438 L 7.503906 6.253906 C 7.503906 5.792969 7.128906 5.421875 6.671875 5.421875 C 6.210938 5.421875 5.835938 5.792969 5.835938 6.253906 L 5.835938 8.140625 L 4.449219 9.382812 C 4.109375 9.691406 4.085938 10.214844 4.390625 10.554688 C 4.695312 10.894531 5.214844 10.925781 5.558594 10.625 L 11.667969 5.15625 L 17.777344 10.625 C 18 10.824219 18.3125 10.894531 18.597656 10.800781 C 18.882812 10.707031 19.097656 10.46875 19.15625 10.175781 C 19.21875 9.882812 19.117188 9.582031 18.890625 9.382812 Z M 12.464844 3.632812 "/>
<path style=" stroke:none;fill-rule:nonzero;fill:rgb(0%,0%,0%);fill-opacity:1;" d="M 16.667969 11.667969 C 16.207031 11.667969 15.835938 12.042969 15.835938 12.503906 L 15.835938 18.335938 L 7.503906 18.335938 L 7.503906 12.503906 C 7.503906 12.042969 7.128906 11.667969 6.671875 11.667969 C 6.210938 11.667969 5.835938 12.042969 5.835938 12.503906 L 5.835938 18.863281 C 5.84375 19.5 6.367188 20.007812 7.003906 20 L 16.335938 20 C 16.972656 20.007812 17.492188 19.496094 17.5 18.859375 L 17.5 12.503906 C 17.5 12.042969 17.128906 11.667969 16.667969 11.667969 Z M 16.667969 11.667969 "/>
<path style=" stroke:none;fill-rule:nonzero;fill:rgb(0%,0%,0%);fill-opacity:1;" d="M 11.667969 21.667969 C 8.449219 21.667969 5.835938 24.277344 5.835938 27.5 C 5.835938 30.71875 8.449219 33.332031 11.667969 33.332031 C 14.890625 33.332031 17.5 30.71875 17.5 27.5 C 17.496094 24.28125 14.890625 21.671875 11.667969 21.667969 Z M 7.503906 27.5 C 7.507812 25.519531 8.898438 23.816406 10.835938 23.417969 L 10.835938 27.027344 L 7.753906 28.875 C 7.59375 28.433594 7.507812 27.96875 7.503906 27.5 Z M 8.613281 30.304688 L 11.539062 28.546875 L 13.964844 30.96875 C 12.261719 32.105469 9.984375 31.824219 8.613281 30.304688 Z M 15.140625 29.792969 L 12.503906 27.15625 L 12.503906 23.417969 C 13.859375 23.691406 14.988281 24.625 15.519531 25.902344 C 16.046875 27.179688 15.90625 28.640625 15.140625 29.792969 Z M 15.140625 29.792969 "/>
<path style=" stroke:none;fill-rule:nonzero;fill:rgb(0%,0%,0%);fill-opacity:1;" d="M 44.996094 15.003906 L 44.996094 12.148438 C 44.996094 11.425781 44.40625 10.835938 43.683594 10.835938 L 41.3125 10.835938 C 40.585938 10.835938 39.996094 11.425781 39.996094 12.148438 L 39.996094 15.003906 L 38.332031 15.003906 L 38.332031 9.777344 C 38.328125 8.984375 37.683594 8.335938 36.890625 8.335938 L 34.773438 8.335938 C 33.976562 8.335938 33.332031 8.984375 33.332031 9.777344 L 33.332031 15.003906 L 31.664062 15.003906 L 31.664062 5.835938 C 31.664062 4.917969 30.917969 4.171875 30 4.171875 L 28.332031 4.171875 C 27.414062 4.171875 26.667969 4.917969 26.667969 5.835938 L 26.667969 15.003906 L 25.832031 15.003906 C 25.371094 15.003906 25 14.628906 25 14.167969 L 25 4.171875 C 25 3.710938 24.625 3.335938 24.167969 3.335938 C 23.707031 3.335938 23.332031 3.710938 23.332031 4.171875 L 23.332031 14.167969 C 23.332031 15.550781 24.453125 16.667969 25.832031 16.667969 L 44.996094 16.667969 C 45.457031 16.667969 45.828125 16.296875 45.828125 15.835938 C 45.828125 15.375 45.457031 15.003906 44.996094 15.003906 Z M 30 15.003906 L 28.332031 15.003906 L 28.332031 5.835938 L 30 5.835938 Z M 36.664062 15.003906 L 34.996094 15.003906 L 34.996094 10.003906 L 36.664062 10.003906 Z M 43.328125 15.003906 L 41.664062 15.003906 L 41.664062 12.503906 L 43.328125 12.503906 Z M 43.328125 15.003906 "/>
<path style=" stroke:none;fill-rule:nonzero;fill:rgb(0%,0%,0%);fill-opacity:1;" d="M 44.996094 31.664062 L 25.832031 31.664062 C 25.371094 31.664062 25 31.292969 25 30.832031 L 25 29.511719 L 27.742188 26.765625 C 28.074219 26.453125 28.59375 26.453125 28.921875 26.765625 L 29.898438 27.742188 C 30.875 28.71875 32.457031 28.71875 33.433594 27.742188 L 36.910156 24.269531 C 37.238281 23.953125 37.757812 23.953125 38.085938 24.269531 L 39.0625 25.246094 C 40.039062 26.21875 41.621094 26.21875 42.597656 25.246094 L 45.585938 22.257812 C 45.902344 21.929688 45.894531 21.410156 45.574219 21.089844 C 45.253906 20.769531 44.734375 20.761719 44.40625 21.078125 L 41.417969 24.066406 C 41.09375 24.390625 40.566406 24.390625 40.242188 24.066406 L 39.265625 23.089844 C 38.273438 22.144531 36.71875 22.144531 35.730469 23.089844 L 32.253906 26.566406 C 31.929688 26.890625 31.402344 26.890625 31.078125 26.566406 L 30.101562 25.589844 C 29.113281 24.644531 27.554688 24.644531 26.566406 25.589844 L 25 27.15625 L 25 20.835938 C 25 20.375 24.625 20 24.167969 20 C 23.707031 20 23.332031 20.375 23.332031 20.835938 L 23.332031 30.832031 C 23.332031 32.210938 24.453125 33.332031 25.832031 33.332031 L 44.996094 33.332031 C 45.457031 33.332031 45.828125 32.957031 45.828125 32.5 C 45.828125 32.039062 45.457031 31.664062 44.996094 31.664062 Z M 44.996094 31.664062 "/>
<path style=" stroke:none;fill-rule:nonzero;fill:rgb(0%,0%,0%);fill-opacity:1;" d="M 49.996094 38.707031 L 49.996094 4.625 C 50.109375 2.203125 48.25 0.140625 45.828125 0.00390625 L 4.171875 0.00390625 C 1.75 0.140625 -0.109375 2.203125 0.00390625 4.625 L 0.00390625 38.707031 C -0.109375 41.132812 1.75 43.195312 4.171875 43.328125 L 17.5 43.328125 L 17.5 44.996094 L 14.167969 44.996094 C 12.328125 44.996094 10.835938 46.488281 10.835938 48.328125 L 10.835938 49.160156 C 10.835938 49.621094 11.210938 49.996094 11.667969 49.996094 L 38.332031 49.996094 C 38.789062 49.996094 39.164062 49.621094 39.164062 49.160156 L 39.164062 48.328125 C 39.164062 46.488281 37.671875 44.996094 35.832031 44.996094 L 32.5 44.996094 L 32.5 43.328125 L 45.828125 43.328125 C 48.25 43.195312 50.109375 41.132812 49.996094 38.707031 Z M 35.832031 46.664062 C 36.75 46.664062 37.496094 47.410156 37.496094 48.328125 L 12.503906 48.328125 C 12.503906 47.410156 13.25 46.664062 14.167969 46.664062 Z M 19.167969 44.996094 L 19.167969 43.328125 L 30.832031 43.328125 L 30.832031 44.996094 Z M 45.828125 41.664062 L 4.171875 41.664062 C 2.671875 41.527344 1.558594 40.210938 1.671875 38.707031 L 1.671875 36.664062 L 48.328125 36.664062 L 48.328125 38.707031 C 48.441406 40.210938 47.328125 41.527344 45.828125 41.664062 Z M 48.328125 4.625 L 48.328125 34.996094 L 1.671875 34.996094 L 1.671875 4.625 C 1.558594 3.125 2.671875 1.808594 4.171875 1.671875 L 45.828125 1.671875 C 47.328125 1.808594 48.441406 3.125 48.328125 4.625 Z M 48.328125 4.625 "/>
</g>
</svg>
