<?xml version="1.0" encoding="UTF-8"?>
<svg xmlns="http://www.w3.org/2000/svg" xmlns:xlink="http://www.w3.org/1999/xlink" width="50pt" height="50pt" viewBox="0 0 50 50" version="1.1">
<g id="surface1">
<path style=" stroke:none;fill-rule:nonzero;fill:rgb(0%,0%,0%);fill-opacity:1;" d="M 22.511719 27.929688 C 23.519531 27.300781 24.433594 26.53125 25.226562 25.648438 L 28.082031 27.300781 L 30.683594 22.792969 L 27.835938 21.148438 C 28.195312 20.039062 28.410156 18.867188 28.449219 17.648438 L 31.695312 17.078125 L 30.789062 11.953125 L 27.546875 12.523438 C 27.097656 11.414062 26.496094 10.382812 25.769531 9.453125 L 27.886719 6.925781 L 23.902344 3.582031 L 21.785156 6.105469 C 20.75 5.550781 19.628906 5.136719 18.449219 4.890625 L 18.449219 1.597656 L 13.246094 1.597656 L 13.246094 4.890625 C 12.0625 5.136719 10.945312 5.550781 9.910156 6.105469 L 7.792969 3.582031 L 3.804688 6.925781 L 5.925781 9.453125 C 5.195312 10.382812 4.59375 11.414062 4.148438 12.523438 L 0.902344 11.953125 L 0 17.078125 L 3.242188 17.648438 C 3.285156 18.867188 3.496094 20.039062 3.859375 21.148438 L 1.007812 22.792969 L 3.609375 27.300781 L 6.464844 25.648438 C 7.257812 26.53125 8.171875 27.300781 9.183594 27.933594 L 8.054688 31.03125 L 12.945312 32.808594 L 14.070312 29.714844 C 14.652344 29.796875 15.242188 29.839844 15.847656 29.839844 C 16.449219 29.839844 17.042969 29.796875 17.621094 29.714844 L 18.75 32.808594 L 23.636719 31.03125 Z M 15.847656 23.875 C 12.183594 23.875 9.203125 20.894531 9.203125 17.230469 C 9.203125 13.566406 12.183594 10.585938 15.847656 10.585938 C 19.511719 10.585938 22.492188 13.566406 22.492188 17.230469 C 22.492188 20.894531 19.511719 23.875 15.847656 23.875 Z M 15.847656 23.875 "/>
<path style=" stroke:none;fill-rule:nonzero;fill:rgb(0%,0%,0%);fill-opacity:1;" d="M 44.875 31.839844 L 42.628906 32.5625 C 42.203125 31.820312 41.675781 31.148438 41.066406 30.5625 L 42.320312 28.5625 L 39.164062 26.585938 L 37.910156 28.582031 C 37.121094 28.292969 36.289062 28.109375 35.425781 28.050781 L 35.101562 25.714844 L 31.410156 26.230469 L 31.738281 28.5625 C 30.925781 28.855469 30.171875 29.261719 29.492188 29.757812 L 27.742188 28.175781 L 25.246094 30.941406 L 26.996094 32.523438 C 26.574219 33.253906 26.25 34.042969 26.039062 34.875 L 23.683594 34.792969 L 23.550781 38.511719 L 25.90625 38.597656 C 26.054688 39.457031 26.320312 40.269531 26.6875 41.019531 L 24.828125 42.464844 L 27.117188 45.402344 L 28.980469 43.953125 C 29.628906 44.5 30.355469 44.953125 31.132812 45.300781 L 30.640625 47.609375 L 34.28125 48.386719 L 34.773438 46.082031 C 35.195312 46.085938 35.617188 46.054688 36.046875 45.996094 C 36.472656 45.9375 36.890625 45.847656 37.292969 45.734375 L 38.398438 47.816406 L 41.6875 46.070312 L 40.582031 43.984375 C 41.234375 43.4375 41.808594 42.800781 42.28125 42.097656 L 44.472656 42.984375 L 45.871094 39.535156 L 43.6875 38.648438 C 43.832031 37.828125 43.867188 36.976562 43.777344 36.109375 L 46.019531 35.382812 Z M 35.457031 41.765625 C 32.859375 42.128906 30.449219 40.308594 30.089844 37.710938 C 29.726562 35.113281 31.546875 32.707031 34.144531 32.34375 C 36.742188 31.984375 39.148438 33.800781 39.511719 36.398438 C 39.871094 38.996094 38.054688 41.40625 35.457031 41.765625 Z M 35.457031 41.765625 "/>
<path style=" stroke:none;fill-rule:nonzero;fill:rgb(0%,0%,0%);fill-opacity:1;" d="M 49.898438 18.929688 L 49.984375 15.992188 L 48.125 15.9375 C 48.007812 15.289062 47.800781 14.648438 47.496094 14.03125 L 48.957031 12.878906 L 47.132812 10.570312 L 45.671875 11.722656 C 45.152344 11.292969 44.574219 10.9375 43.964844 10.671875 L 44.339844 8.847656 L 41.464844 8.25 L 41.085938 10.074219 C 40.421875 10.074219 39.753906 10.171875 39.097656 10.363281 L 38.21875 8.726562 L 35.628906 10.117188 L 36.511719 11.757812 C 35.988281 12.195312 35.542969 12.703125 35.175781 13.257812 L 33.445312 12.566406 L 32.359375 15.300781 L 34.089844 15.988281 C 33.976562 16.648438 33.953125 17.320312 34.03125 17.996094 L 32.261719 18.578125 L 33.183594 21.371094 L 34.953125 20.785156 C 35.296875 21.382812 35.71875 21.90625 36.195312 22.363281 L 35.21875 23.945312 L 37.71875 25.488281 L 38.699219 23.902344 C 39.332031 24.128906 39.992188 24.269531 40.664062 24.3125 L 40.933594 26.15625 L 43.839844 25.730469 L 43.574219 23.886719 C 43.882812 23.773438 44.191406 23.636719 44.492188 23.476562 C 44.789062 23.3125 45.074219 23.132812 45.339844 22.9375 L 46.730469 24.175781 L 48.6875 21.980469 L 47.296875 20.738281 C 47.628906 20.15625 47.875 19.527344 48.035156 18.875 Z M 42.890625 20.507812 C 41.070312 21.488281 38.785156 20.804688 37.804688 18.980469 C 36.824219 17.15625 37.507812 14.875 39.332031 13.894531 C 41.152344 12.914062 43.4375 13.597656 44.417969 15.421875 C 45.398438 17.242188 44.714844 19.523438 42.890625 20.507812 Z M 42.890625 20.507812 "/>
</g>
</svg>
