<?xml version="1.0" encoding="UTF-8"?>
<svg xmlns="http://www.w3.org/2000/svg" xmlns:xlink="http://www.w3.org/1999/xlink" width="50pt" height="50pt" viewBox="0 0 50 50" version="1.1">
<g id="surface1">
<path style=" stroke:none;fill-rule:nonzero;fill:rgb(0%,0%,0%);fill-opacity:1;" d="M 32.113281 36.007812 C 31.589844 35.691406 31.046875 35.375 30.507812 35.0625 C 30.636719 33.984375 30.636719 32.890625 30.507812 31.8125 C 31.050781 31.5 31.589844 31.179688 32.113281 30.867188 C 32.996094 30.335938 33.363281 29.21875 32.96875 28.269531 L 31.816406 25.492188 C 31.421875 24.542969 30.375 24.011719 29.378906 24.257812 C 28.785156 24.40625 28.179688 24.5625 27.574219 24.726562 C 26.902344 23.875 26.128906 23.101562 25.273438 22.425781 C 25.4375 21.820312 25.59375 21.214844 25.742188 20.625 C 25.988281 19.625 25.457031 18.578125 24.507812 18.183594 L 21.730469 17.03125 C 20.78125 16.636719 19.664062 17.003906 19.132812 17.886719 C 18.820312 18.410156 18.5 18.949219 18.1875 19.492188 C 17.109375 19.363281 16.015625 19.363281 14.933594 19.492188 C 14.621094 18.949219 14.304688 18.410156 13.992188 17.886719 C 13.460938 17.003906 12.34375 16.640625 11.394531 17.03125 L 8.617188 18.183594 C 7.667969 18.578125 7.136719 19.625 7.382812 20.625 C 7.53125 21.21875 7.6875 21.824219 7.851562 22.425781 C 7 23.097656 6.226562 23.871094 5.550781 24.726562 C 4.945312 24.5625 4.339844 24.40625 3.746094 24.257812 C 2.75 24.011719 1.703125 24.542969 1.308594 25.492188 L 0.15625 28.269531 C -0.234375 29.21875 0.128906 30.335938 1.011719 30.867188 C 1.535156 31.179688 2.074219 31.5 2.617188 31.8125 C 2.488281 32.890625 2.488281 33.984375 2.617188 35.0625 C 2.074219 35.375 1.535156 35.695312 1.011719 36.007812 C 0.128906 36.539062 -0.238281 37.65625 0.15625 38.605469 L 1.308594 41.382812 C 1.703125 42.332031 2.75 42.863281 3.746094 42.617188 C 4.339844 42.46875 4.945312 42.3125 5.550781 42.148438 C 6.222656 43 6.996094 43.773438 7.851562 44.449219 C 7.6875 45.054688 7.53125 45.660156 7.382812 46.253906 C 7.136719 47.25 7.667969 48.296875 8.617188 48.691406 L 11.394531 49.84375 C 11.652344 49.949219 11.921875 50 12.1875 50 C 12.90625 50 13.605469 49.632812 13.992188 48.988281 C 14.304688 48.46875 14.621094 47.929688 14.9375 47.382812 C 16.015625 47.511719 17.109375 47.511719 18.191406 47.382812 C 18.5 47.921875 18.816406 48.460938 19.132812 48.988281 C 19.664062 49.871094 20.78125 50.238281 21.730469 49.84375 L 24.507812 48.691406 C 25.457031 48.296875 25.988281 47.25 25.742188 46.253906 C 25.59375 45.664062 25.4375 45.058594 25.273438 44.449219 C 26.125 43.777344 26.898438 43.003906 27.574219 42.148438 C 28.179688 42.3125 28.785156 42.46875 29.378906 42.617188 C 30.375 42.863281 31.421875 42.332031 31.816406 41.382812 L 32.96875 38.605469 C 33.363281 37.65625 32.996094 36.539062 32.113281 36.007812 Z M 29.796875 40.414062 C 29.226562 40.269531 28.644531 40.121094 28.066406 39.964844 C 27.25 39.742188 26.386719 40.03125 25.867188 40.695312 C 25.273438 41.460938 24.585938 42.152344 23.820312 42.746094 C 23.15625 43.261719 22.867188 44.125 23.089844 44.945312 C 23.246094 45.523438 23.398438 46.105469 23.539062 46.671875 L 20.988281 47.726562 C 20.683594 47.222656 20.378906 46.703125 20.082031 46.1875 C 19.660156 45.453125 18.847656 45.046875 18.011719 45.152344 C 17.050781 45.269531 16.078125 45.269531 15.117188 45.152344 C 14.277344 45.046875 13.464844 45.453125 13.042969 46.1875 C 12.742188 46.710938 12.4375 47.226562 12.136719 47.726562 L 9.585938 46.671875 C 9.730469 46.101562 9.878906 45.519531 10.035156 44.941406 C 10.257812 44.125 9.96875 43.261719 9.304688 42.742188 C 8.539062 42.148438 7.847656 41.460938 7.253906 40.695312 C 6.738281 40.03125 5.875 39.746094 5.054688 39.964844 C 4.476562 40.121094 3.898438 40.269531 3.328125 40.414062 L 2.273438 37.863281 C 2.777344 37.5625 3.292969 37.257812 3.8125 36.957031 C 4.546875 36.535156 4.953125 35.722656 4.847656 34.886719 C 4.730469 33.925781 4.730469 32.953125 4.847656 31.992188 C 4.953125 31.152344 4.546875 30.339844 3.8125 29.917969 C 3.292969 29.617188 2.777344 29.316406 2.273438 29.011719 L 3.328125 26.460938 C 3.898438 26.605469 4.476562 26.753906 5.058594 26.910156 C 5.875 27.132812 6.738281 26.84375 7.257812 26.179688 C 7.851562 25.414062 8.539062 24.722656 9.304688 24.128906 C 9.96875 23.613281 10.253906 22.75 10.035156 21.929688 C 9.878906 21.355469 9.730469 20.773438 9.585938 20.203125 L 12.136719 19.148438 C 12.4375 19.648438 12.742188 20.167969 13.042969 20.6875 C 13.464844 21.421875 14.277344 21.828125 15.113281 21.722656 C 16.074219 21.605469 17.046875 21.605469 18.007812 21.722656 C 18.847656 21.828125 19.660156 21.421875 20.082031 20.6875 C 20.382812 20.167969 20.683594 19.652344 20.988281 19.148438 L 23.539062 20.203125 C 23.394531 20.773438 23.246094 21.355469 23.089844 21.933594 C 22.867188 22.75 23.15625 23.613281 23.820312 24.132812 C 24.585938 24.726562 25.277344 25.414062 25.871094 26.179688 C 26.386719 26.84375 27.25 27.128906 28.070312 26.910156 C 28.644531 26.753906 29.226562 26.605469 29.796875 26.460938 L 30.851562 29.011719 C 30.351562 29.3125 29.832031 29.617188 29.3125 29.917969 C 28.578125 30.339844 28.171875 31.152344 28.277344 31.988281 C 28.394531 32.949219 28.394531 33.921875 28.277344 34.882812 C 28.171875 35.722656 28.578125 36.535156 29.3125 36.957031 C 29.828125 37.253906 30.347656 37.558594 30.851562 37.863281 Z M 29.796875 40.414062 "/>
<path style=" stroke:none;fill-rule:nonzero;fill:rgb(0%,0%,0%);fill-opacity:1;" d="M 23.609375 30.519531 C 22 26.632812 17.53125 24.78125 13.644531 26.390625 C 9.757812 28 7.90625 32.472656 9.515625 36.355469 C 10.296875 38.238281 11.761719 39.703125 13.644531 40.484375 C 14.585938 40.875 15.574219 41.070312 16.5625 41.070312 C 17.550781 41.070312 18.539062 40.875 19.480469 40.484375 C 23.367188 38.875 25.21875 34.40625 23.609375 30.519531 Z M 18.625 38.417969 C 17.296875 38.96875 15.832031 38.96875 14.5 38.417969 C 13.171875 37.867188 12.132812 36.828125 11.582031 35.5 C 10.445312 32.753906 11.753906 29.59375 14.5 28.457031 C 15.171875 28.179688 15.871094 28.046875 16.554688 28.046875 C 18.671875 28.046875 20.683594 29.300781 21.542969 31.375 C 22.679688 34.121094 21.371094 37.28125 18.625 38.417969 Z M 18.625 38.417969 "/>
<path style=" stroke:none;fill-rule:nonzero;fill:rgb(0%,0%,0%);fill-opacity:1;" d="M 48.492188 9.855469 C 48.105469 9.800781 47.707031 9.742188 47.308594 9.691406 C 47.109375 9.019531 46.839844 8.371094 46.507812 7.753906 C 46.75 7.433594 46.992188 7.113281 47.226562 6.800781 C 47.742188 6.101562 47.667969 5.109375 47.050781 4.492188 L 45.507812 2.949219 C 44.890625 2.332031 43.898438 2.257812 43.199219 2.773438 C 42.882812 3.007812 42.5625 3.25 42.246094 3.492188 C 41.628906 3.160156 40.980469 2.894531 40.308594 2.691406 C 40.257812 2.292969 40.199219 1.894531 40.144531 1.507812 C 40.015625 0.648438 39.261719 0 38.390625 0 L 36.207031 0 C 35.335938 0 34.582031 0.648438 34.453125 1.507812 C 34.394531 1.894531 34.335938 2.292969 34.285156 2.691406 C 33.613281 2.890625 32.964844 3.160156 32.347656 3.492188 C 32.03125 3.25 31.710938 3.007812 31.394531 2.773438 C 30.695312 2.257812 29.703125 2.332031 29.085938 2.949219 L 27.542969 4.492188 C 26.925781 5.109375 26.851562 6.101562 27.371094 6.800781 C 27.601562 7.113281 27.84375 7.433594 28.085938 7.753906 C 27.757812 8.371094 27.488281 9.019531 27.285156 9.691406 C 26.886719 9.742188 26.488281 9.800781 26.101562 9.855469 C 25.242188 9.984375 24.59375 10.738281 24.59375 11.609375 L 24.59375 13.792969 C 24.59375 14.664062 25.242188 15.417969 26.101562 15.546875 C 26.488281 15.605469 26.886719 15.664062 27.285156 15.714844 C 27.488281 16.386719 27.757812 17.035156 28.085938 17.652344 C 27.84375 17.96875 27.601562 18.289062 27.371094 18.605469 C 26.851562 19.304688 26.925781 20.296875 27.542969 20.914062 L 29.085938 22.457031 C 29.703125 23.074219 30.695312 23.148438 31.394531 22.628906 C 31.710938 22.398438 32.03125 22.15625 32.347656 21.910156 C 32.964844 22.242188 33.613281 22.511719 34.285156 22.714844 C 34.335938 23.113281 34.394531 23.511719 34.453125 23.898438 C 34.582031 24.757812 35.335938 25.40625 36.207031 25.40625 L 38.390625 25.40625 C 39.261719 25.40625 40.015625 24.757812 40.144531 23.898438 C 40.199219 23.511719 40.257812 23.113281 40.308594 22.714844 C 40.980469 22.511719 41.628906 22.242188 42.246094 21.910156 C 42.5625 22.15625 42.882812 22.398438 43.199219 22.628906 C 43.898438 23.148438 44.890625 23.074219 45.507812 22.457031 L 47.050781 20.914062 C 47.667969 20.296875 47.742188 19.304688 47.226562 18.605469 C 46.992188 18.289062 46.75 17.96875 46.507812 17.652344 C 46.839844 17.035156 47.105469 16.386719 47.308594 15.714844 C 47.707031 15.664062 48.105469 15.605469 48.492188 15.546875 C 49.351562 15.417969 50 14.664062 50 13.792969 L 50 11.609375 C 50 10.738281 49.351562 9.984375 48.492188 9.855469 Z M 47.875 13.492188 C 47.523438 13.542969 47.164062 13.589844 46.804688 13.636719 C 46.097656 13.730469 45.515625 14.234375 45.324219 14.921875 C 45.144531 15.578125 44.878906 16.214844 44.542969 16.808594 C 44.191406 17.429688 44.246094 18.195312 44.679688 18.765625 C 44.902344 19.050781 45.121094 19.339844 45.332031 19.625 L 44.21875 20.738281 C 43.933594 20.523438 43.644531 20.308594 43.359375 20.085938 C 42.792969 19.648438 42.023438 19.597656 41.402344 19.949219 C 40.808594 20.285156 40.171875 20.550781 39.515625 20.730469 C 38.828125 20.921875 38.324219 21.5 38.230469 22.210938 C 38.183594 22.570312 38.136719 22.929688 38.085938 23.28125 L 36.507812 23.28125 C 36.457031 22.929688 36.410156 22.570312 36.363281 22.210938 C 36.269531 21.5 35.765625 20.921875 35.078125 20.730469 C 34.421875 20.550781 33.785156 20.285156 33.191406 19.949219 C 32.570312 19.597656 31.800781 19.648438 31.234375 20.085938 C 30.949219 20.308594 30.660156 20.523438 30.375 20.738281 L 29.261719 19.625 C 29.472656 19.339844 29.691406 19.050781 29.914062 18.765625 C 30.347656 18.195312 30.402344 17.429688 30.050781 16.808594 C 29.714844 16.214844 29.449219 15.578125 29.269531 14.921875 C 29.078125 14.234375 28.5 13.730469 27.789062 13.636719 C 27.429688 13.589844 27.070312 13.542969 26.71875 13.488281 L 26.71875 11.914062 C 27.070312 11.863281 27.429688 11.816406 27.789062 11.769531 C 28.5 11.675781 29.078125 11.171875 29.269531 10.484375 C 29.449219 9.824219 29.714844 9.191406 30.050781 8.597656 C 30.402344 7.976562 30.347656 7.207031 29.914062 6.640625 C 29.691406 6.355469 29.472656 6.066406 29.261719 5.78125 L 30.375 4.667969 C 30.660156 4.878906 30.949219 5.097656 31.234375 5.316406 C 31.800781 5.753906 32.570312 5.808594 33.191406 5.457031 C 33.785156 5.121094 34.421875 4.855469 35.078125 4.675781 C 35.765625 4.484375 36.269531 3.902344 36.363281 3.195312 C 36.410156 2.835938 36.457031 2.476562 36.507812 2.125 L 38.085938 2.125 C 38.136719 2.476562 38.183594 2.835938 38.230469 3.195312 C 38.324219 3.902344 38.828125 4.484375 39.515625 4.675781 C 40.175781 4.855469 40.808594 5.121094 41.402344 5.457031 C 42.023438 5.808594 42.792969 5.753906 43.359375 5.320312 C 43.644531 5.097656 43.933594 4.878906 44.21875 4.667969 L 45.332031 5.78125 C 45.121094 6.066406 44.902344 6.355469 44.679688 6.640625 C 44.246094 7.207031 44.191406 7.976562 44.542969 8.597656 C 44.878906 9.191406 45.144531 9.828125 45.324219 10.484375 C 45.515625 11.171875 46.09375 11.675781 46.804688 11.769531 C 47.164062 11.816406 47.523438 11.863281 47.875 11.914062 Z M 47.875 13.492188 "/>
<path style=" stroke:none;fill-rule:nonzero;fill:rgb(0%,0%,0%);fill-opacity:1;" d="M 37.296875 8.171875 C 34.796875 8.171875 32.765625 10.203125 32.765625 12.703125 C 32.765625 15.203125 34.796875 17.234375 37.296875 17.234375 C 39.796875 17.234375 41.828125 15.203125 41.828125 12.703125 C 41.828125 10.203125 39.796875 8.171875 37.296875 8.171875 Z M 37.296875 15.21875 C 35.910156 15.21875 34.78125 14.089844 34.78125 12.703125 C 34.78125 11.316406 35.910156 10.1875 37.296875 10.1875 C 38.683594 10.1875 39.8125 11.316406 39.8125 12.703125 C 39.8125 14.089844 38.683594 15.21875 37.296875 15.21875 Z M 37.296875 15.21875 "/>
</g>
</svg>
