<?xml version="1.0" encoding="UTF-8"?>
<svg xmlns="http://www.w3.org/2000/svg" xmlns:xlink="http://www.w3.org/1999/xlink" width="50pt" height="50pt" viewBox="0 0 50 50" version="1.1">
<g id="surface1">
<path style=" stroke:none;fill-rule:nonzero;fill:rgb(0%,0%,0%);fill-opacity:1;" d="M 46.875 35.15625 L 42.96875 35.15625 L 42.96875 30.46875 L 38.28125 30.46875 L 38.28125 27.125 C 44.488281 26.011719 49.21875 20.585938 49.21875 14.0625 C 49.21875 6.738281 43.261719 0.78125 35.9375 0.78125 C 30.058594 0.78125 24.894531 4.683594 23.222656 10.21875 C 21.71875 9.195312 19.910156 8.59375 17.96875 8.59375 C 13.3125 8.59375 9.453125 11.925781 8.722656 16.445312 C 6.011719 16.769531 3.90625 19.082031 3.90625 21.875 C 3.90625 24.890625 6.359375 27.34375 9.375 27.34375 L 11.71875 27.34375 L 11.71875 30.46875 L 7.03125 30.46875 L 7.03125 35.15625 L 3.125 35.15625 C 1.832031 35.15625 0.78125 36.207031 0.78125 37.5 L 0.78125 43.75 C 0.78125 45.042969 1.832031 46.09375 3.125 46.09375 L 4.6875 46.09375 L 4.6875 47.65625 L 3.125 47.65625 L 3.125 49.21875 L 12.5 49.21875 L 12.5 47.65625 L 10.9375 47.65625 L 10.9375 46.09375 L 12.5 46.09375 C 13.792969 46.09375 14.84375 45.042969 14.84375 43.75 L 14.84375 39.84375 L 17.96875 39.84375 L 17.96875 43.75 C 17.96875 45.042969 19.019531 46.09375 20.3125 46.09375 L 21.875 46.09375 L 21.875 47.65625 L 20.3125 47.65625 L 20.3125 49.21875 L 29.6875 49.21875 L 29.6875 47.65625 L 28.125 47.65625 L 28.125 46.09375 L 29.6875 46.09375 C 30.980469 46.09375 32.03125 45.042969 32.03125 43.75 L 32.03125 39.84375 L 35.15625 39.84375 L 35.15625 43.75 C 35.15625 45.042969 36.207031 46.09375 37.5 46.09375 L 39.0625 46.09375 L 39.0625 47.65625 L 37.5 47.65625 L 37.5 49.21875 L 46.875 49.21875 L 46.875 47.65625 L 45.3125 47.65625 L 45.3125 46.09375 L 46.875 46.09375 C 48.167969 46.09375 49.21875 45.042969 49.21875 43.75 L 49.21875 37.5 C 49.21875 36.207031 48.167969 35.15625 46.875 35.15625 Z M 47.65625 37.5 L 47.65625 41.40625 L 36.71875 41.40625 L 36.71875 37.5 C 36.71875 37.070312 37.070312 36.71875 37.5 36.71875 L 46.875 36.71875 C 47.304688 36.71875 47.65625 37.070312 47.65625 37.5 Z M 28.933594 14.84375 C 28.949219 15.398438 28.984375 15.945312 29.035156 16.488281 C 28.738281 16.4375 28.4375 16.40625 28.125 16.40625 C 27.820312 16.40625 27.515625 16.433594 27.214844 16.484375 C 27.125 15.917969 26.984375 15.371094 26.796875 14.84375 Z M 35.9375 2.34375 C 37.679688 2.34375 39.261719 4.207031 40.269531 7.03125 L 31.605469 7.03125 C 32.613281 4.207031 34.195312 2.34375 35.9375 2.34375 Z M 40.75 8.59375 C 41.109375 10.015625 41.332031 11.609375 41.386719 13.28125 L 30.488281 13.28125 C 30.542969 11.609375 30.765625 10.015625 31.125 8.59375 Z M 47.617188 13.28125 L 42.949219 13.28125 C 42.898438 11.609375 42.695312 10.03125 42.359375 8.59375 L 46.292969 8.59375 C 47.042969 10.007812 47.503906 11.597656 47.617188 13.28125 Z M 47.617188 14.84375 C 47.503906 16.527344 47.042969 18.117188 46.292969 19.53125 L 42.359375 19.53125 C 42.695312 18.09375 42.898438 16.515625 42.949219 14.84375 Z M 30.664062 17.035156 C 30.574219 16.320312 30.519531 15.585938 30.496094 14.84375 L 41.386719 14.84375 C 41.332031 16.515625 41.109375 18.109375 40.75 19.53125 L 33.058594 19.53125 C 32.550781 18.464844 31.707031 17.585938 30.664062 17.035156 Z M 33.53125 21.09375 L 40.269531 21.09375 C 39.261719 23.917969 37.679688 25.78125 35.9375 25.78125 C 34.730469 25.78125 33.554688 25.601562 32.421875 25.246094 C 33.152344 24.316406 33.59375 23.144531 33.59375 21.875 C 33.59375 21.609375 33.566406 21.351562 33.53125 21.09375 Z M 39.921875 25.070312 C 40.730469 24.03125 41.410156 22.675781 41.925781 21.09375 L 45.289062 21.09375 C 43.933594 22.894531 42.074219 24.285156 39.921875 25.070312 Z M 45.289062 7.03125 L 41.925781 7.03125 C 41.410156 5.449219 40.730469 4.09375 39.921875 3.054688 C 42.074219 3.839844 43.933594 5.230469 45.289062 7.03125 Z M 31.964844 3.042969 C 31.148438 4.082031 30.464844 5.445312 29.949219 7.03125 L 26.570312 7.03125 C 27.941406 5.21875 29.816406 3.820312 31.964844 3.042969 Z M 25.582031 8.59375 L 29.515625 8.59375 C 29.179688 10.03125 28.976562 11.609375 28.925781 13.28125 L 26.074219 13.28125 C 25.65625 12.558594 25.144531 11.898438 24.554688 11.3125 C 24.785156 10.351562 25.132812 9.441406 25.582031 8.59375 Z M 5.46875 21.875 C 5.46875 19.722656 7.21875 17.96875 9.367188 17.96875 L 9.371094 17.96875 L 10.125 18.011719 L 10.191406 17.261719 C 10.558594 13.210938 13.898438 10.15625 17.96875 10.15625 C 22.097656 10.15625 25.519531 13.386719 25.757812 17.515625 L 25.816406 18.558594 L 26.800781 18.203125 C 27.234375 18.046875 27.679688 17.96875 28.125 17.96875 C 30.277344 17.96875 32.03125 19.722656 32.03125 21.875 C 32.03125 24.027344 30.277344 25.78125 28.125 25.78125 L 9.375 25.78125 C 7.222656 25.78125 5.46875 24.027344 5.46875 21.875 Z M 3.125 36.71875 L 12.5 36.71875 C 12.929688 36.71875 13.28125 37.070312 13.28125 37.5 L 13.28125 41.40625 L 2.34375 41.40625 L 2.34375 37.5 C 2.34375 37.070312 2.695312 36.71875 3.125 36.71875 Z M 9.375 47.65625 L 6.25 47.65625 L 6.25 46.09375 L 9.375 46.09375 Z M 12.5 44.53125 L 3.125 44.53125 C 2.695312 44.53125 2.34375 44.179688 2.34375 43.75 L 2.34375 42.96875 L 13.28125 42.96875 L 13.28125 43.75 C 13.28125 44.179688 12.929688 44.53125 12.5 44.53125 Z M 14.84375 38.28125 L 14.84375 37.5 C 14.84375 36.207031 13.792969 35.15625 12.5 35.15625 L 8.59375 35.15625 L 8.59375 32.03125 L 13.28125 32.03125 L 13.28125 27.34375 L 24.21875 27.34375 L 24.21875 35.15625 L 20.3125 35.15625 C 19.019531 35.15625 17.96875 36.207031 17.96875 37.5 L 17.96875 38.28125 Z M 30.46875 41.40625 L 19.53125 41.40625 L 19.53125 37.5 C 19.53125 37.070312 19.882812 36.71875 20.3125 36.71875 L 29.6875 36.71875 C 30.117188 36.71875 30.46875 37.070312 30.46875 37.5 Z M 26.5625 47.65625 L 23.4375 47.65625 L 23.4375 46.09375 L 26.5625 46.09375 Z M 29.6875 44.53125 L 20.3125 44.53125 C 19.882812 44.53125 19.53125 44.179688 19.53125 43.75 L 19.53125 42.96875 L 30.46875 42.96875 L 30.46875 43.75 C 30.46875 44.179688 30.117188 44.53125 29.6875 44.53125 Z M 32.03125 38.28125 L 32.03125 37.5 C 32.03125 36.207031 30.980469 35.15625 29.6875 35.15625 L 25.78125 35.15625 L 25.78125 27.34375 L 28.125 27.34375 C 29.238281 27.34375 30.273438 27.007812 31.140625 26.433594 C 32.667969 27.027344 34.277344 27.34375 35.9375 27.34375 C 36.203125 27.34375 36.457031 27.320312 36.71875 27.304688 L 36.71875 32.03125 L 41.40625 32.03125 L 41.40625 35.15625 L 37.5 35.15625 C 36.207031 35.15625 35.15625 36.207031 35.15625 37.5 L 35.15625 38.28125 Z M 43.75 47.65625 L 40.625 47.65625 L 40.625 46.09375 L 43.75 46.09375 Z M 46.875 44.53125 L 37.5 44.53125 C 37.070312 44.53125 36.71875 44.179688 36.71875 43.75 L 36.71875 42.96875 L 47.65625 42.96875 L 47.65625 43.75 C 47.65625 44.179688 47.304688 44.53125 46.875 44.53125 Z M 46.875 44.53125 "/>
<path style=" stroke:none;fill-rule:nonzero;fill:rgb(0%,0%,0%);fill-opacity:1;" d="M 12.5 19.53125 C 11.207031 19.53125 10.15625 20.582031 10.15625 21.875 C 10.15625 23.167969 11.207031 24.21875 12.5 24.21875 C 13.792969 24.21875 14.84375 23.167969 14.84375 21.875 C 14.84375 20.582031 13.792969 19.53125 12.5 19.53125 Z M 12.5 22.65625 C 12.070312 22.65625 11.71875 22.304688 11.71875 21.875 C 11.71875 21.445312 12.070312 21.09375 12.5 21.09375 C 12.929688 21.09375 13.28125 21.445312 13.28125 21.875 C 13.28125 22.304688 12.929688 22.65625 12.5 22.65625 Z M 12.5 22.65625 "/>
<path style=" stroke:none;fill-rule:nonzero;fill:rgb(0%,0%,0%);fill-opacity:1;" d="M 18.75 19.53125 C 17.457031 19.53125 16.40625 20.582031 16.40625 21.875 C 16.40625 23.167969 17.457031 24.21875 18.75 24.21875 C 20.042969 24.21875 21.09375 23.167969 21.09375 21.875 C 21.09375 20.582031 20.042969 19.53125 18.75 19.53125 Z M 18.75 22.65625 C 18.320312 22.65625 17.96875 22.304688 17.96875 21.875 C 17.96875 21.445312 18.320312 21.09375 18.75 21.09375 C 19.179688 21.09375 19.53125 21.445312 19.53125 21.875 C 19.53125 22.304688 19.179688 22.65625 18.75 22.65625 Z M 18.75 22.65625 "/>
<path style=" stroke:none;fill-rule:nonzero;fill:rgb(0%,0%,0%);fill-opacity:1;" d="M 25 19.53125 C 23.707031 19.53125 22.65625 20.582031 22.65625 21.875 C 22.65625 23.167969 23.707031 24.21875 25 24.21875 C 26.292969 24.21875 27.34375 23.167969 27.34375 21.875 C 27.34375 20.582031 26.292969 19.53125 25 19.53125 Z M 25 22.65625 C 24.570312 22.65625 24.21875 22.304688 24.21875 21.875 C 24.21875 21.445312 24.570312 21.09375 25 21.09375 C 25.429688 21.09375 25.78125 21.445312 25.78125 21.875 C 25.78125 22.304688 25.429688 22.65625 25 22.65625 Z M 25 22.65625 "/>
<path style=" stroke:none;fill-rule:nonzero;fill:rgb(0%,0%,0%);fill-opacity:1;" d="M 17.96875 11.71875 L 17.96875 13.28125 C 20.027344 13.28125 21.875 14.65625 22.460938 16.628906 L 23.960938 16.183594 C 23.175781 13.554688 20.714844 11.71875 17.96875 11.71875 Z M 17.96875 11.71875 "/>
</g>
</svg>
