<?xml version="1.0" encoding="UTF-8"?>
<svg xmlns="http://www.w3.org/2000/svg" xmlns:xlink="http://www.w3.org/1999/xlink" width="50pt" height="50pt" viewBox="0 0 50 50" version="1.1">
<g id="surface1">
<path style=" stroke:none;fill-rule:nonzero;fill:rgb(0%,0%,0%);fill-opacity:1;" d="M 7.816406 38.398438 C 7.503906 38.277344 7.152344 38.347656 6.910156 38.574219 C 6.832031 38.65625 6.773438 38.746094 6.734375 38.851562 C 6.691406 38.949219 6.667969 39.058594 6.667969 39.167969 C 6.664062 39.386719 6.75 39.601562 6.910156 39.757812 C 7.066406 39.914062 7.277344 40.003906 7.5 40 C 7.609375 40 7.714844 39.976562 7.816406 39.933594 C 7.917969 39.894531 8.011719 39.835938 8.089844 39.757812 C 8.414062 39.429688 8.414062 38.902344 8.089844 38.574219 C 8.011719 38.496094 7.917969 38.4375 7.816406 38.398438 Z M 7.816406 38.398438 "/>
<path style=" stroke:none;fill-rule:nonzero;fill:rgb(0%,0%,0%);fill-opacity:1;" d="M 10.242188 38.574219 C 9.917969 38.902344 9.917969 39.425781 10.246094 39.75 C 10.570312 40.078125 11.097656 40.078125 11.421875 39.75 C 11.746094 39.425781 11.75 38.902344 11.425781 38.574219 C 11.089844 38.269531 10.578125 38.269531 10.242188 38.574219 Z M 10.242188 38.574219 "/>
<path style=" stroke:none;fill-rule:nonzero;fill:rgb(0%,0%,0%);fill-opacity:1;" d="M 13.851562 38.398438 C 13.746094 38.441406 13.65625 38.5 13.574219 38.574219 C 13.253906 38.902344 13.253906 39.429688 13.574219 39.757812 C 13.65625 39.832031 13.746094 39.894531 13.851562 39.933594 C 14.050781 40.023438 14.28125 40.023438 14.484375 39.933594 C 14.585938 39.894531 14.679688 39.832031 14.757812 39.757812 C 15.082031 39.429688 15.082031 38.902344 14.757812 38.574219 C 14.515625 38.34375 14.160156 38.273438 13.851562 38.398438 Z M 13.851562 38.398438 "/>
<path style=" stroke:none;fill-rule:nonzero;fill:rgb(0%,0%,0%);fill-opacity:1;" d="M 49.417969 8.042969 C 49.410156 8.023438 49.40625 8.007812 49.398438 7.992188 C 47.816406 3.21875 43.359375 0 38.332031 0 C 33.308594 0 28.847656 3.21875 27.269531 7.992188 C 27.261719 8.007812 27.257812 8.023438 27.25 8.042969 C 26.957031 8.945312 26.773438 9.882812 26.707031 10.832031 L 14.046875 10.832031 C 13.644531 9.261719 12.164062 8.210938 10.546875 8.34375 C 8.929688 8.480469 7.648438 9.765625 7.511719 11.382812 C 7.375 13 8.425781 14.476562 10 14.882812 L 10 26.667969 L 1.667969 26.667969 C 0.746094 26.667969 0 27.414062 0 28.332031 L 0 41.667969 C 0 42.585938 0.746094 43.332031 1.667969 43.332031 L 7.5 43.332031 L 7.5 45 L 5.832031 45 C 4.453125 45 3.335938 46.121094 3.332031 47.5 L 3.332031 49.167969 C 3.332031 49.386719 3.421875 49.601562 3.578125 49.757812 C 3.734375 49.914062 3.945312 50 4.167969 50 L 17.5 50 C 17.722656 50 17.933594 49.914062 18.089844 49.757812 C 18.246094 49.601562 18.332031 49.386719 18.332031 49.167969 L 18.332031 47.5 C 18.332031 46.121094 17.214844 45 15.832031 45 L 14.167969 45 L 14.167969 43.332031 L 20 43.332031 C 20.921875 43.332031 21.664062 42.585938 21.667969 41.667969 L 21.667969 39.167969 L 35.117188 39.167969 C 35.523438 40.738281 37 41.789062 38.617188 41.65625 C 40.234375 41.519531 41.519531 40.234375 41.65625 38.617188 C 41.789062 37 40.738281 35.523438 39.167969 35.117188 L 39.167969 23.292969 C 43.855469 22.949219 47.882812 19.832031 49.382812 15.378906 C 49.390625 15.367188 49.394531 15.355469 49.398438 15.34375 C 50.195312 12.976562 50.199219 10.414062 49.417969 8.042969 Z M 37.5 1.824219 L 37.5 7.5 L 33.8125 7.5 C 34.503906 4.582031 35.878906 2.394531 37.5 1.824219 Z M 33.820312 15.875 L 37.5 15.875 L 37.5 21.507812 C 35.886719 20.941406 34.515625 18.769531 33.820312 15.875 Z M 34.066406 20.699219 C 31.957031 19.695312 30.261719 17.992188 29.273438 15.875 L 32.105469 15.875 C 32.441406 17.59375 33.105469 19.234375 34.066406 20.699219 Z M 33.511719 14.207031 C 33.277344 12.535156 33.273438 10.839844 33.503906 9.167969 L 37.5 9.167969 L 37.5 14.207031 Z M 34.066406 2.636719 C 33.097656 4.113281 32.429688 5.765625 32.097656 7.5 L 29.253906 7.5 C 30.238281 5.367188 31.941406 3.644531 34.066406 2.636719 Z M 28.664062 9.167969 L 31.816406 9.167969 C 31.613281 10.839844 31.617188 12.535156 31.824219 14.207031 L 28.671875 14.207031 C 28.222656 12.558594 28.21875 10.820312 28.664062 9.167969 Z M 9.167969 11.667969 C 9.167969 10.746094 9.914062 10 10.832031 10 C 11.753906 10 12.5 10.746094 12.5 11.667969 C 12.5 12.585938 11.753906 13.332031 10.832031 13.332031 C 9.914062 13.332031 9.167969 12.585938 9.167969 11.667969 Z M 15.832031 46.667969 C 16.292969 46.667969 16.667969 47.039062 16.667969 47.5 L 16.667969 48.332031 L 5 48.332031 L 5 47.5 C 5 47.039062 5.375 46.667969 5.832031 46.667969 Z M 9.167969 45 L 9.167969 43.332031 L 12.5 43.332031 L 12.5 45 Z M 13.332031 41.667969 L 1.667969 41.667969 L 1.667969 28.332031 L 20 28.332031 L 20 41.667969 Z M 35.117188 37.5 L 21.667969 37.5 L 21.667969 28.332031 C 21.664062 27.414062 20.921875 26.667969 20 26.667969 L 11.667969 26.667969 L 11.667969 14.882812 C 12.832031 14.578125 13.746094 13.667969 14.046875 12.5 L 26.707031 12.5 C 26.777344 13.46875 26.964844 14.421875 27.269531 15.34375 C 27.273438 15.355469 27.277344 15.367188 27.28125 15.378906 C 28.785156 19.832031 32.8125 22.949219 37.5 23.292969 L 37.5 35.117188 C 36.332031 35.421875 35.421875 36.332031 35.117188 37.5 Z M 40 38.332031 C 40 39.253906 39.253906 40 38.332031 40 C 37.414062 40 36.667969 39.253906 36.667969 38.332031 C 36.667969 37.414062 37.414062 36.667969 38.332031 36.667969 C 39.253906 36.667969 40 37.414062 40 38.332031 Z M 47.414062 7.5 L 44.570312 7.5 C 44.238281 5.765625 43.566406 4.113281 42.601562 2.636719 C 44.722656 3.644531 46.425781 5.367188 47.414062 7.5 Z M 39.167969 1.824219 C 40.785156 2.394531 42.164062 4.582031 42.855469 7.5 L 39.167969 7.5 Z M 39.167969 9.167969 L 43.160156 9.167969 C 43.390625 10.839844 43.390625 12.535156 43.15625 14.207031 L 39.167969 14.207031 Z M 39.167969 21.507812 L 39.167969 15.875 L 42.84375 15.875 C 42.152344 18.769531 40.777344 20.941406 39.167969 21.507812 Z M 42.601562 20.695312 C 43.5625 19.234375 44.226562 17.59375 44.5625 15.875 L 47.390625 15.875 C 46.402344 17.992188 44.710938 19.695312 42.601562 20.695312 Z M 47.992188 14.207031 L 44.84375 14.207031 C 45.050781 12.535156 45.050781 10.839844 44.851562 9.167969 L 48.003906 9.167969 C 48.445312 10.820312 48.441406 12.558594 47.992188 14.207031 Z M 47.992188 14.207031 "/>
</g>
</svg>
