<?xml version="1.0" encoding="UTF-8"?>
<svg xmlns="http://www.w3.org/2000/svg" xmlns:xlink="http://www.w3.org/1999/xlink" width="50pt" height="50pt" viewBox="0 0 50 50" version="1.1">
<g id="surface1">
<path style=" stroke:none;fill-rule:nonzero;fill:rgb(0%,0%,0%);fill-opacity:1;" d="M 33.59375 27.34375 L 16.40625 27.34375 C 15.113281 27.347656 14.066406 28.394531 14.0625 29.6875 L 14.0625 39.84375 C 14.066406 41.136719 15.113281 42.183594 16.40625 42.1875 L 22.65625 42.1875 L 22.65625 43.75 L 20.3125 43.75 C 20.019531 43.75 19.746094 43.914062 19.617188 44.179688 L 18.054688 47.304688 C 17.933594 47.546875 17.945312 47.835938 18.085938 48.066406 C 18.226562 48.296875 18.480469 48.4375 18.75 48.4375 L 31.25 48.4375 C 31.519531 48.4375 31.773438 48.296875 31.914062 48.066406 C 32.054688 47.835938 32.066406 47.546875 31.945312 47.304688 L 30.382812 44.179688 C 30.253906 43.914062 29.980469 43.75 29.6875 43.75 L 27.34375 43.75 L 27.34375 42.1875 L 33.59375 42.1875 C 34.886719 42.183594 35.933594 41.136719 35.9375 39.84375 L 35.9375 29.6875 C 35.933594 28.394531 34.886719 27.347656 33.59375 27.34375 Z M 29.203125 45.3125 L 29.984375 46.875 L 20.015625 46.875 L 20.796875 45.3125 Z M 24.21875 43.75 L 24.21875 42.1875 L 25.78125 42.1875 L 25.78125 43.75 Z M 34.375 39.84375 C 34.375 40.273438 34.023438 40.625 33.59375 40.625 L 16.40625 40.625 C 15.976562 40.625 15.625 40.273438 15.625 39.84375 L 15.625 39.0625 L 34.375 39.0625 Z M 34.375 37.5 L 15.625 37.5 L 15.625 29.6875 C 15.625 29.257812 15.976562 28.90625 16.40625 28.90625 L 33.59375 28.90625 C 34.023438 28.90625 34.375 29.257812 34.375 29.6875 Z M 34.375 37.5 "/>
<path style=" stroke:none;fill-rule:nonzero;fill:rgb(0%,0%,0%);fill-opacity:1;" d="M 21.09375 1.5625 L 3.90625 1.5625 C 2.613281 1.566406 1.566406 2.613281 1.5625 3.90625 L 1.5625 14.0625 C 1.566406 15.355469 2.613281 16.402344 3.90625 16.40625 L 10.15625 16.40625 L 10.15625 17.96875 L 7.8125 17.96875 C 7.519531 17.96875 7.246094 18.132812 7.117188 18.398438 L 5.554688 21.523438 C 5.433594 21.765625 5.445312 22.054688 5.585938 22.285156 C 5.726562 22.515625 5.980469 22.65625 6.25 22.65625 L 18.75 22.65625 C 19.019531 22.65625 19.273438 22.515625 19.414062 22.285156 C 19.554688 22.054688 19.566406 21.765625 19.445312 21.523438 L 17.882812 18.398438 C 17.753906 18.132812 17.480469 17.96875 17.1875 17.96875 L 14.84375 17.96875 L 14.84375 16.40625 L 21.09375 16.40625 C 22.386719 16.402344 23.433594 15.355469 23.4375 14.0625 L 23.4375 3.90625 C 23.433594 2.613281 22.386719 1.566406 21.09375 1.5625 Z M 16.703125 19.53125 L 17.484375 21.09375 L 7.515625 21.09375 L 8.296875 19.53125 Z M 11.71875 17.96875 L 11.71875 16.40625 L 13.28125 16.40625 L 13.28125 17.96875 Z M 21.875 14.0625 C 21.875 14.492188 21.523438 14.84375 21.09375 14.84375 L 3.90625 14.84375 C 3.476562 14.84375 3.125 14.492188 3.125 14.0625 L 3.125 13.28125 L 21.875 13.28125 Z M 21.875 11.71875 L 3.125 11.71875 L 3.125 3.90625 C 3.125 3.476562 3.476562 3.125 3.90625 3.125 L 21.09375 3.125 C 21.523438 3.125 21.875 3.476562 21.875 3.90625 Z M 21.875 11.71875 "/>
<path style=" stroke:none;fill-rule:nonzero;fill:rgb(0%,0%,0%);fill-opacity:1;" d="M 47.65625 27.34375 L 40.625 27.34375 L 40.625 24.21875 L 39.0625 24.21875 L 39.0625 28.125 C 39.0625 28.554688 39.414062 28.90625 39.84375 28.90625 L 46.875 28.90625 L 46.875 36.71875 L 40.625 36.71875 L 40.625 38.28125 L 47.65625 38.28125 C 48.085938 38.28125 48.4375 37.929688 48.4375 37.5 L 48.4375 28.125 C 48.4375 27.695312 48.085938 27.34375 47.65625 27.34375 Z M 47.65625 27.34375 "/>
<path style=" stroke:none;fill-rule:nonzero;fill:rgb(0%,0%,0%);fill-opacity:1;" d="M 37.5 36.71875 L 39.0625 36.71875 L 39.0625 38.28125 L 37.5 38.28125 Z M 37.5 36.71875 "/>
<path style=" stroke:none;fill-rule:nonzero;fill:rgb(0%,0%,0%);fill-opacity:1;" d="M 10.9375 24.21875 L 9.375 24.21875 L 9.375 27.34375 L 2.34375 27.34375 C 1.914062 27.34375 1.5625 27.695312 1.5625 28.125 L 1.5625 37.5 C 1.5625 37.929688 1.914062 38.28125 2.34375 38.28125 L 9.375 38.28125 L 9.375 36.71875 L 3.125 36.71875 L 3.125 28.90625 L 10.15625 28.90625 C 10.585938 28.90625 10.9375 28.554688 10.9375 28.125 Z M 10.9375 24.21875 "/>
<path style=" stroke:none;fill-rule:nonzero;fill:rgb(0%,0%,0%);fill-opacity:1;" d="M 10.9375 36.71875 L 12.5 36.71875 L 12.5 38.28125 L 10.9375 38.28125 Z M 10.9375 36.71875 "/>
<path style=" stroke:none;fill-rule:nonzero;fill:rgb(0%,0%,0%);fill-opacity:1;" d="M 24.21875 32.8125 L 25.78125 32.8125 L 25.78125 34.375 L 24.21875 34.375 Z M 24.21875 32.8125 "/>
<path style=" stroke:none;fill-rule:nonzero;fill:rgb(0%,0%,0%);fill-opacity:1;" d="M 27.34375 32.8125 L 28.90625 32.8125 L 28.90625 34.375 L 27.34375 34.375 Z M 27.34375 32.8125 "/>
<path style=" stroke:none;fill-rule:nonzero;fill:rgb(0%,0%,0%);fill-opacity:1;" d="M 21.09375 32.8125 L 22.65625 32.8125 L 22.65625 34.375 L 21.09375 34.375 Z M 21.09375 32.8125 "/>
<path style=" stroke:none;fill-rule:nonzero;fill:rgb(0%,0%,0%);fill-opacity:1;" d="M 46.09375 1.5625 L 28.90625 1.5625 C 27.613281 1.566406 26.566406 2.613281 26.5625 3.90625 L 26.5625 14.0625 C 26.566406 15.355469 27.613281 16.402344 28.90625 16.40625 L 35.15625 16.40625 L 35.15625 17.96875 L 32.8125 17.96875 C 32.519531 17.96875 32.246094 18.132812 32.117188 18.398438 L 30.554688 21.523438 C 30.433594 21.765625 30.445312 22.054688 30.585938 22.285156 C 30.726562 22.515625 30.980469 22.65625 31.25 22.65625 L 43.75 22.65625 C 44.019531 22.65625 44.273438 22.515625 44.414062 22.285156 C 44.554688 22.054688 44.566406 21.765625 44.445312 21.523438 L 42.882812 18.398438 C 42.753906 18.132812 42.480469 17.96875 42.1875 17.96875 L 39.84375 17.96875 L 39.84375 16.40625 L 46.09375 16.40625 C 47.386719 16.402344 48.433594 15.355469 48.4375 14.0625 L 48.4375 3.90625 C 48.433594 2.613281 47.386719 1.566406 46.09375 1.5625 Z M 41.703125 19.53125 L 42.484375 21.09375 L 32.515625 21.09375 L 33.296875 19.53125 Z M 36.71875 17.96875 L 36.71875 16.40625 L 38.28125 16.40625 L 38.28125 17.96875 Z M 46.875 14.0625 C 46.875 14.492188 46.523438 14.84375 46.09375 14.84375 L 28.90625 14.84375 C 28.476562 14.84375 28.125 14.492188 28.125 14.0625 L 28.125 13.28125 L 46.875 13.28125 Z M 46.875 11.71875 L 28.125 11.71875 L 28.125 3.90625 C 28.125 3.476562 28.476562 3.125 28.90625 3.125 L 46.09375 3.125 C 46.523438 3.125 46.875 3.476562 46.875 3.90625 Z M 46.875 11.71875 "/>
</g>
</svg>
