<?xml version="1.0" encoding="UTF-8"?>
<svg xmlns="http://www.w3.org/2000/svg" xmlns:xlink="http://www.w3.org/1999/xlink" width="50pt" height="50pt" viewBox="0 0 50 50" version="1.1">
<g id="surface1">
<path style=" stroke:none;fill-rule:nonzero;fill:rgb(0%,0%,0%);fill-opacity:1;" d="M 46.640625 0 L 21.65625 0 C 19.816406 0 18.324219 1.492188 18.324219 3.332031 L 18.324219 19.988281 C 18.324219 21.828125 19.816406 23.320312 21.65625 23.320312 L 29.710938 23.320312 L 28.523438 27.484375 L 26.652344 27.484375 L 26.652344 29.152344 L 41.644531 29.152344 L 41.644531 27.484375 L 39.773438 27.484375 L 38.585938 23.320312 L 46.640625 23.320312 C 48.480469 23.320312 49.972656 21.828125 49.972656 19.988281 L 49.972656 3.332031 C 49.972656 1.492188 48.480469 0 46.640625 0 Z M 19.988281 3.332031 C 19.988281 2.410156 20.734375 1.664062 21.65625 1.664062 L 46.640625 1.664062 C 47.5625 1.664062 48.308594 2.410156 48.308594 3.332031 L 48.308594 17.492188 L 19.988281 17.492188 Z M 38.042969 27.484375 L 30.253906 27.484375 L 31.445312 23.320312 L 36.851562 23.320312 Z M 46.640625 21.65625 L 21.65625 21.65625 C 20.734375 21.65625 19.988281 20.910156 19.988281 19.988281 L 19.988281 19.15625 L 48.308594 19.15625 L 48.308594 19.988281 C 48.308594 20.910156 47.5625 21.65625 46.640625 21.65625 Z M 46.640625 21.65625 "/>
<path style=" stroke:none;fill-rule:nonzero;fill:rgb(0%,0%,0%);fill-opacity:1;" d="M 2.5 49.972656 L 24.152344 49.972656 C 25.535156 49.972656 26.652344 48.855469 26.652344 47.476562 L 26.652344 44.976562 C 26.652344 44.515625 26.28125 44.144531 25.820312 44.144531 L 24.152344 44.144531 L 24.152344 32.484375 C 24.152344 31.101562 23.035156 29.984375 21.65625 29.984375 L 4.996094 29.984375 C 3.617188 29.984375 2.5 31.101562 2.5 32.484375 L 2.5 44.144531 L 0.832031 44.144531 C 0.371094 44.144531 0 44.515625 0 44.976562 L 0 47.476562 C 0 48.855469 1.117188 49.972656 2.5 49.972656 Z M 4.164062 32.484375 C 4.164062 32.023438 4.539062 31.648438 4.996094 31.648438 L 21.65625 31.648438 C 22.117188 31.648438 22.488281 32.023438 22.488281 32.484375 L 22.488281 44.144531 L 15.824219 44.144531 C 15.605469 44.144531 15.390625 44.230469 15.234375 44.386719 L 14.648438 44.976562 L 12.003906 44.976562 L 11.417969 44.386719 C 11.261719 44.230469 11.046875 44.144531 10.828125 44.144531 L 4.164062 44.144531 Z M 1.664062 45.808594 L 10.484375 45.808594 L 11.070312 46.398438 C 11.226562 46.554688 11.441406 46.640625 11.660156 46.640625 L 14.992188 46.640625 C 15.214844 46.640625 15.425781 46.554688 15.582031 46.398438 L 16.167969 45.808594 L 24.988281 45.808594 L 24.988281 47.476562 C 24.988281 47.933594 24.613281 48.308594 24.152344 48.308594 L 2.5 48.308594 C 2.039062 48.308594 1.664062 47.933594 1.664062 47.476562 Z M 1.664062 45.808594 "/>
<path style=" stroke:none;fill-rule:nonzero;fill:rgb(0%,0%,0%);fill-opacity:1;" d="M 8.328125 23.320312 L 9.996094 23.320312 L 9.996094 24.988281 L 8.328125 24.988281 Z M 8.328125 23.320312 "/>
<path style=" stroke:none;fill-rule:nonzero;fill:rgb(0%,0%,0%);fill-opacity:1;" d="M 8.328125 19.988281 L 9.996094 19.988281 L 9.996094 21.65625 L 8.328125 21.65625 Z M 8.328125 19.988281 "/>
<path style=" stroke:none;fill-rule:nonzero;fill:rgb(0%,0%,0%);fill-opacity:1;" d="M 8.328125 26.652344 L 9.996094 26.652344 L 9.996094 28.316406 L 8.328125 28.316406 Z M 8.328125 26.652344 "/>
<path style=" stroke:none;fill-rule:nonzero;fill:rgb(0%,0%,0%);fill-opacity:1;" d="M 8.328125 16.65625 L 9.996094 16.65625 L 9.996094 18.324219 L 8.328125 18.324219 Z M 8.328125 16.65625 "/>
<path style=" stroke:none;fill-rule:nonzero;fill:rgb(0%,0%,0%);fill-opacity:1;" d="M 8.328125 13.328125 L 9.996094 13.328125 L 9.996094 14.992188 L 8.328125 14.992188 Z M 8.328125 13.328125 "/>
<path style=" stroke:none;fill-rule:nonzero;fill:rgb(0%,0%,0%);fill-opacity:1;" d="M 11.660156 13.328125 L 13.328125 13.328125 L 13.328125 14.992188 L 11.660156 14.992188 Z M 11.660156 13.328125 "/>
<path style=" stroke:none;fill-rule:nonzero;fill:rgb(0%,0%,0%);fill-opacity:1;" d="M 14.992188 13.328125 L 16.65625 13.328125 L 16.65625 14.992188 L 14.992188 14.992188 Z M 14.992188 13.328125 "/>
<path style=" stroke:none;fill-rule:nonzero;fill:rgb(0%,0%,0%);fill-opacity:1;" d="M 38.3125 34.148438 L 39.980469 34.148438 L 39.980469 35.8125 L 38.3125 35.8125 Z M 38.3125 34.148438 "/>
<path style=" stroke:none;fill-rule:nonzero;fill:rgb(0%,0%,0%);fill-opacity:1;" d="M 38.3125 37.480469 L 39.980469 37.480469 L 39.980469 39.144531 L 38.3125 39.144531 Z M 38.3125 37.480469 "/>
<path style=" stroke:none;fill-rule:nonzero;fill:rgb(0%,0%,0%);fill-opacity:1;" d="M 38.3125 30.816406 L 39.980469 30.816406 L 39.980469 32.484375 L 38.3125 32.484375 Z M 38.3125 30.816406 "/>
<path style=" stroke:none;fill-rule:nonzero;fill:rgb(0%,0%,0%);fill-opacity:1;" d="M 38.3125 40.8125 L 39.980469 40.8125 L 39.980469 42.476562 L 38.3125 42.476562 Z M 38.3125 40.8125 "/>
<path style=" stroke:none;fill-rule:nonzero;fill:rgb(0%,0%,0%);fill-opacity:1;" d="M 38.3125 44.144531 L 39.980469 44.144531 L 39.980469 45.808594 L 38.3125 45.808594 Z M 38.3125 44.144531 "/>
<path style=" stroke:none;fill-rule:nonzero;fill:rgb(0%,0%,0%);fill-opacity:1;" d="M 34.980469 44.144531 L 36.648438 44.144531 L 36.648438 45.808594 L 34.980469 45.808594 Z M 34.980469 44.144531 "/>
<path style=" stroke:none;fill-rule:nonzero;fill:rgb(0%,0%,0%);fill-opacity:1;" d="M 31.648438 44.144531 L 33.316406 44.144531 L 33.316406 45.808594 L 31.648438 45.808594 Z M 31.648438 44.144531 "/>
<path style=" stroke:none;fill-rule:nonzero;fill:rgb(0%,0%,0%);fill-opacity:1;" d="M 28.316406 44.144531 L 29.984375 44.144531 L 29.984375 45.808594 L 28.316406 45.808594 Z M 28.316406 44.144531 "/>
<path style=" stroke:none;fill-rule:nonzero;fill:rgb(0%,0%,0%);fill-opacity:1;" d="M 33.746094 5.648438 C 34.402344 5.644531 35.050781 5.816406 35.625 6.144531 C 35.976562 6.351562 36.429688 6.269531 36.6875 5.953125 C 36.945312 5.632812 36.933594 5.175781 36.664062 4.871094 L 35.621094 3.632812 L 35.019531 4.132812 C 33.402344 3.742188 31.695312 4.113281 30.386719 5.144531 C 29.078125 6.175781 28.316406 7.746094 28.316406 9.410156 C 28.316406 10.25 28.511719 11.078125 28.886719 11.828125 L 30.378906 11.085938 C 29.796875 9.917969 29.863281 8.535156 30.546875 7.429688 C 31.234375 6.320312 32.441406 5.648438 33.746094 5.648438 Z M 33.746094 5.648438 "/>
<path style=" stroke:none;fill-rule:nonzero;fill:rgb(0%,0%,0%);fill-opacity:1;" d="M 37.085938 7.664062 C 37.347656 8.183594 37.480469 8.757812 37.480469 9.339844 C 37.480469 10.683594 36.761719 11.925781 35.601562 12.597656 C 34.4375 13.269531 33.003906 13.269531 31.839844 12.597656 C 31.488281 12.394531 31.035156 12.476562 30.777344 12.792969 C 30.519531 13.109375 30.53125 13.566406 30.800781 13.875 L 31.769531 15.421875 L 32.945312 14.710938 C 34.503906 14.933594 36.082031 14.472656 37.273438 13.441406 C 38.460938 12.410156 39.144531 10.914062 39.144531 9.339844 C 39.148438 8.503906 38.953125 7.675781 38.578125 6.925781 Z M 37.085938 7.664062 "/>
<path style=" stroke:none;fill-rule:nonzero;fill:rgb(0%,0%,0%);fill-opacity:1;" d="M 10.828125 38.3125 C 10.828125 37.527344 11.195312 36.789062 11.824219 36.316406 C 12.449219 35.84375 13.261719 35.695312 14.015625 35.910156 L 14.472656 34.308594 C 12.695312 33.796875 10.792969 34.523438 9.804688 36.085938 C 8.816406 37.652344 8.980469 39.679688 10.203125 41.066406 L 11.453125 39.964844 C 11.050781 39.507812 10.828125 38.921875 10.828125 38.3125 Z M 10.828125 38.3125 "/>
<path style=" stroke:none;fill-rule:nonzero;fill:rgb(0%,0%,0%);fill-opacity:1;" d="M 13.328125 40.8125 C 13.035156 40.8125 12.75 40.761719 12.476562 40.664062 L 11.910156 42.226562 C 13.699219 42.875 15.699219 42.226562 16.769531 40.652344 C 17.835938 39.078125 17.707031 36.980469 16.445312 35.554688 L 15.199219 36.65625 C 15.847656 37.394531 16.007812 38.441406 15.605469 39.339844 C 15.199219 40.234375 14.308594 40.8125 13.328125 40.8125 Z M 13.328125 40.8125 "/>
</g>
</svg>
