<?xml version="1.0" encoding="UTF-8"?>
<svg xmlns="http://www.w3.org/2000/svg" xmlns:xlink="http://www.w3.org/1999/xlink" width="50pt" height="50pt" viewBox="0 0 50 50" version="1.1">
<g id="surface1">
<path style=" stroke:none;fill-rule:nonzero;fill:rgb(0%,0%,0%);fill-opacity:1;" d="M 39.0625 14.84375 L 25 14.84375 C 24.460938 14.84375 24.023438 15.28125 24.023438 15.820312 C 24.023438 16.359375 24.460938 16.796875 25 16.796875 L 39.0625 16.796875 C 39.601562 16.796875 40.039062 16.359375 40.039062 15.820312 C 40.039062 15.28125 39.601562 14.84375 39.0625 14.84375 Z M 39.0625 14.84375 "/>
<path style=" stroke:none;fill-rule:nonzero;fill:rgb(0%,0%,0%);fill-opacity:1;" d="M 35.644531 19.816406 C 35.464844 19.636719 35.210938 19.53125 34.957031 19.53125 C 34.699219 19.53125 34.445312 19.636719 34.265625 19.816406 C 34.082031 20 33.980469 20.25 33.980469 20.507812 C 33.980469 20.765625 34.082031 21.015625 34.265625 21.199219 C 34.445312 21.378906 34.699219 21.484375 34.957031 21.484375 C 35.210938 21.484375 35.464844 21.378906 35.644531 21.199219 C 35.828125 21.015625 35.933594 20.765625 35.933594 20.507812 C 35.933594 20.25 35.828125 20 35.644531 19.816406 Z M 35.644531 19.816406 "/>
<path style=" stroke:none;fill-rule:nonzero;fill:rgb(0%,0%,0%);fill-opacity:1;" d="M 25.691406 4.484375 C 25.507812 4.304688 25.257812 4.199219 25 4.199219 C 24.742188 4.199219 24.492188 4.304688 24.308594 4.484375 C 24.128906 4.667969 24.023438 4.917969 24.023438 5.175781 C 24.023438 5.433594 24.128906 5.683594 24.308594 5.867188 C 24.492188 6.046875 24.742188 6.152344 25 6.152344 C 25.257812 6.152344 25.507812 6.046875 25.691406 5.867188 C 25.871094 5.683594 25.976562 5.433594 25.976562 5.175781 C 25.976562 4.917969 25.871094 4.667969 25.691406 4.484375 Z M 25.691406 4.484375 "/>
<path style=" stroke:none;fill-rule:nonzero;fill:rgb(0%,0%,0%);fill-opacity:1;" d="M 30.847656 19.53125 L 25 19.53125 C 24.460938 19.53125 24.023438 19.96875 24.023438 20.507812 C 24.023438 21.046875 24.460938 21.484375 25 21.484375 L 30.847656 21.484375 C 31.386719 21.484375 31.824219 21.046875 31.824219 20.507812 C 31.824219 19.96875 31.386719 19.53125 30.847656 19.53125 Z M 30.847656 19.53125 "/>
<path style=" stroke:none;fill-rule:nonzero;fill:rgb(0%,0%,0%);fill-opacity:1;" d="M 39.0625 25.390625 L 25 25.390625 C 24.460938 25.390625 24.023438 25.828125 24.023438 26.367188 C 24.023438 26.90625 24.460938 27.34375 25 27.34375 L 39.0625 27.34375 C 39.601562 27.34375 40.039062 26.90625 40.039062 26.367188 C 40.039062 25.828125 39.601562 25.390625 39.0625 25.390625 Z M 39.0625 25.390625 "/>
<path style=" stroke:none;fill-rule:nonzero;fill:rgb(0%,0%,0%);fill-opacity:1;" d="M 35.644531 30.363281 C 35.464844 30.183594 35.210938 30.078125 34.957031 30.078125 C 34.699219 30.078125 34.445312 30.183594 34.265625 30.363281 C 34.082031 30.546875 33.980469 30.796875 33.980469 31.054688 C 33.980469 31.3125 34.082031 31.5625 34.265625 31.746094 C 34.445312 31.925781 34.699219 32.03125 34.957031 32.03125 C 35.210938 32.03125 35.464844 31.925781 35.644531 31.746094 C 35.828125 31.5625 35.933594 31.3125 35.933594 31.054688 C 35.933594 30.796875 35.828125 30.546875 35.644531 30.363281 Z M 35.644531 30.363281 "/>
<path style=" stroke:none;fill-rule:nonzero;fill:rgb(0%,0%,0%);fill-opacity:1;" d="M 30.847656 30.078125 L 25 30.078125 C 24.460938 30.078125 24.023438 30.515625 24.023438 31.054688 C 24.023438 31.59375 24.460938 32.03125 25 32.03125 L 30.847656 32.03125 C 31.386719 32.03125 31.824219 31.59375 31.824219 31.054688 C 31.824219 30.515625 31.386719 30.078125 30.847656 30.078125 Z M 30.847656 30.078125 "/>
<path style=" stroke:none;fill-rule:nonzero;fill:rgb(0%,0%,0%);fill-opacity:1;" d="M 39.0625 35.9375 L 25 35.9375 C 24.460938 35.9375 24.023438 36.375 24.023438 36.914062 C 24.023438 37.453125 24.460938 37.890625 25 37.890625 L 39.0625 37.890625 C 39.601562 37.890625 40.039062 37.453125 40.039062 36.914062 C 40.039062 36.375 39.601562 35.9375 39.0625 35.9375 Z M 39.0625 35.9375 "/>
<path style=" stroke:none;fill-rule:nonzero;fill:rgb(0%,0%,0%);fill-opacity:1;" d="M 35.644531 40.910156 C 35.464844 40.730469 35.210938 40.625 34.957031 40.625 C 34.699219 40.625 34.445312 40.730469 34.265625 40.910156 C 34.082031 41.09375 33.980469 41.34375 33.980469 41.601562 C 33.980469 41.859375 34.082031 42.109375 34.265625 42.292969 C 34.445312 42.472656 34.699219 42.578125 34.957031 42.578125 C 35.210938 42.578125 35.464844 42.472656 35.644531 42.292969 C 35.828125 42.109375 35.933594 41.859375 35.933594 41.601562 C 35.933594 41.34375 35.828125 41.09375 35.644531 40.910156 Z M 35.644531 40.910156 "/>
<path style=" stroke:none;fill-rule:nonzero;fill:rgb(0%,0%,0%);fill-opacity:1;" d="M 30.847656 40.625 L 25 40.625 C 24.460938 40.625 24.023438 41.0625 24.023438 41.601562 C 24.023438 42.140625 24.460938 42.578125 25 42.578125 L 30.847656 42.578125 C 31.386719 42.578125 31.824219 42.140625 31.824219 41.601562 C 31.824219 41.0625 31.386719 40.625 30.847656 40.625 Z M 30.847656 40.625 "/>
<path style=" stroke:none;fill-rule:nonzero;fill:rgb(0%,0%,0%);fill-opacity:1;" d="M 40.941406 3.808594 L 33.484375 3.808594 C 32.40625 2.78125 30.945312 2.148438 29.34375 2.148438 L 28.488281 2.148438 C 27.835938 0.855469 26.492188 0 25 0 C 23.507812 0 22.164062 0.855469 21.511719 2.148438 L 20.652344 2.148438 C 19.050781 2.148438 17.59375 2.78125 16.515625 3.808594 L 9.058594 3.808594 C 6.433594 3.808594 4.296875 5.945312 4.296875 8.570312 L 4.296875 45.238281 C 4.296875 47.863281 6.433594 50 9.058594 50 L 40.941406 50 C 43.566406 50 45.703125 47.863281 45.703125 45.238281 L 45.703125 8.570312 C 45.703125 5.945312 43.566406 3.808594 40.941406 3.808594 Z M 20.65625 4.101562 L 22.175781 4.101562 C 22.617188 4.101562 23 3.808594 23.117188 3.386719 C 23.351562 2.542969 24.125 1.953125 25 1.953125 C 25.875 1.953125 26.648438 2.542969 26.882812 3.386719 C 27 3.808594 27.382812 4.101562 27.824219 4.101562 L 29.34375 4.101562 C 31.464844 4.101562 33.207031 5.738281 33.382812 7.8125 L 16.617188 7.8125 C 16.789062 5.738281 18.535156 4.101562 20.65625 4.101562 Z M 43.75 45.238281 C 43.75 46.789062 42.488281 48.046875 40.941406 48.046875 L 9.058594 48.046875 C 7.511719 48.046875 6.25 46.789062 6.25 45.238281 L 6.25 8.570312 C 6.25 7.023438 7.511719 5.761719 9.058594 5.761719 L 15.148438 5.761719 C 14.828125 6.496094 14.648438 7.304688 14.648438 8.15625 L 14.648438 8.789062 C 14.648438 9.328125 15.085938 9.765625 15.625 9.765625 L 34.371094 9.765625 C 34.914062 9.765625 35.347656 9.328125 35.347656 8.789062 L 35.347656 8.15625 C 35.347656 7.304688 35.171875 6.496094 34.851562 5.761719 L 40.941406 5.761719 C 42.488281 5.761719 43.75 7.023438 43.75 8.570312 Z M 43.75 45.238281 "/>
<path style=" stroke:none;fill-rule:nonzero;fill:rgb(0%,0%,0%);fill-opacity:1;" d="M 18.789062 14.609375 C 18.410156 14.226562 17.789062 14.226562 17.410156 14.609375 L 13.234375 18.785156 L 11.945312 17.5 C 11.566406 17.117188 10.945312 17.117188 10.566406 17.5 C 10.183594 17.878906 10.183594 18.5 10.566406 18.878906 L 12.542969 20.855469 C 12.734375 21.046875 12.984375 21.144531 13.234375 21.144531 C 13.484375 21.144531 13.734375 21.046875 13.921875 20.855469 L 18.789062 15.988281 C 19.171875 15.609375 19.171875 14.992188 18.789062 14.609375 Z M 18.789062 14.609375 "/>
<path style=" stroke:none;fill-rule:nonzero;fill:rgb(0%,0%,0%);fill-opacity:1;" d="M 16.40625 35.9375 L 11.71875 35.9375 C 11.179688 35.9375 10.742188 36.375 10.742188 36.914062 L 10.742188 41.601562 C 10.742188 42.140625 11.179688 42.578125 11.71875 42.578125 L 16.40625 42.578125 C 16.945312 42.578125 17.382812 42.140625 17.382812 41.601562 L 17.382812 36.914062 C 17.382812 36.375 16.945312 35.9375 16.40625 35.9375 Z M 15.429688 40.625 L 12.695312 40.625 L 12.695312 37.890625 L 15.429688 37.890625 Z M 15.429688 40.625 "/>
<path style=" stroke:none;fill-rule:nonzero;fill:rgb(0%,0%,0%);fill-opacity:1;" d="M 16.40625 25.390625 L 11.71875 25.390625 C 11.179688 25.390625 10.742188 25.828125 10.742188 26.367188 L 10.742188 31.054688 C 10.742188 31.59375 11.179688 32.03125 11.71875 32.03125 L 16.40625 32.03125 C 16.945312 32.03125 17.382812 31.59375 17.382812 31.054688 L 17.382812 26.367188 C 17.382812 25.828125 16.945312 25.390625 16.40625 25.390625 Z M 15.429688 30.078125 L 12.695312 30.078125 L 12.695312 27.34375 L 15.429688 27.34375 Z M 15.429688 30.078125 "/>
</g>
</svg>
