<?xml version="1.0" encoding="UTF-8"?>
<svg xmlns="http://www.w3.org/2000/svg" xmlns:xlink="http://www.w3.org/1999/xlink" width="50pt" height="50pt" viewBox="0 0 50 50" version="1.1">
<g id="surface1">
<path style=" stroke:none;fill-rule:nonzero;fill:rgb(0%,0%,0%);fill-opacity:1;" d="M 39.640625 6.550781 L 35.117188 6.550781 L 35.117188 4.527344 C 35.117188 3.871094 34.402344 3.574219 33.75 3.574219 L 30.238281 3.574219 C 29.40625 1.195312 27.320312 0.00390625 24.941406 0.00390625 C 22.585938 -0.0859375 20.445312 1.359375 19.644531 3.574219 L 16.191406 3.574219 C 15.535156 3.574219 14.882812 3.871094 14.882812 4.527344 L 14.882812 6.550781 L 10.359375 6.550781 C 7.675781 6.578125 5.484375 8.695312 5.359375 11.371094 L 5.359375 45.476562 C 5.359375 48.09375 7.738281 50 10.359375 50 L 39.640625 50 C 42.261719 50 44.640625 48.09375 44.640625 45.476562 L 44.640625 11.371094 C 44.515625 8.695312 42.324219 6.578125 39.640625 6.550781 Z M 17.261719 5.957031 L 20.535156 5.957031 C 21.109375 5.886719 21.566406 5.453125 21.667969 4.882812 C 22.019531 3.347656 23.367188 2.246094 24.941406 2.207031 C 26.5 2.253906 27.828125 3.359375 28.15625 4.882812 C 28.261719 5.472656 28.75 5.910156 29.34375 5.957031 L 32.738281 5.957031 L 32.738281 10.71875 L 17.261719 10.71875 Z M 42.261719 45.476562 C 42.261719 46.785156 40.949219 47.621094 39.640625 47.621094 L 10.359375 47.621094 C 9.050781 47.621094 7.738281 46.785156 7.738281 45.476562 L 7.738281 11.371094 C 7.859375 10.007812 8.988281 8.957031 10.359375 8.933594 L 14.882812 8.933594 L 14.882812 11.96875 C 14.945312 12.632812 15.523438 13.132812 16.191406 13.097656 L 33.75 13.097656 C 34.429688 13.136719 35.027344 12.644531 35.117188 11.96875 L 35.117188 8.933594 L 39.640625 8.933594 C 41.007812 8.957031 42.140625 10.007812 42.261719 11.371094 Z M 42.261719 45.476562 "/>
<path style=" stroke:none;fill-rule:nonzero;fill:rgb(0%,0%,0%);fill-opacity:1;" d="M 20.417969 26.609375 C 19.96875 26.136719 19.230469 26.113281 18.75 26.550781 L 14.941406 30.179688 L 13.335938 28.511719 C 12.886719 28.042969 12.148438 28.015625 11.667969 28.453125 C 11.207031 28.9375 11.207031 29.695312 11.667969 30.179688 L 14.109375 32.679688 C 14.320312 32.917969 14.625 33.046875 14.941406 33.039062 C 15.253906 33.03125 15.554688 32.90625 15.773438 32.679688 L 20.417969 28.277344 C 20.878906 27.851562 20.90625 27.136719 20.484375 26.679688 C 20.464844 26.652344 20.441406 26.632812 20.417969 26.609375 Z M 20.417969 26.609375 "/>
<path style=" stroke:none;fill-rule:nonzero;fill:rgb(0%,0%,0%);fill-opacity:1;" d="M 37.5 29.167969 L 23.808594 29.167969 C 23.152344 29.167969 22.621094 29.703125 22.621094 30.359375 C 22.621094 31.015625 23.152344 31.550781 23.808594 31.550781 L 37.5 31.550781 C 38.15625 31.550781 38.6875 31.015625 38.6875 30.359375 C 38.6875 29.703125 38.15625 29.167969 37.5 29.167969 Z M 37.5 29.167969 "/>
<path style=" stroke:none;fill-rule:nonzero;fill:rgb(0%,0%,0%);fill-opacity:1;" d="M 20.417969 17.085938 C 19.96875 16.617188 19.230469 16.589844 18.75 17.027344 L 14.941406 20.65625 L 13.335938 18.992188 C 12.886719 18.519531 12.148438 18.492188 11.667969 18.929688 C 11.207031 19.414062 11.207031 20.175781 11.667969 20.65625 L 14.109375 23.15625 C 14.320312 23.394531 14.625 23.523438 14.941406 23.515625 C 15.253906 23.507812 15.554688 23.382812 15.773438 23.15625 L 20.417969 18.753906 C 20.878906 18.332031 20.90625 17.613281 20.484375 17.15625 C 20.464844 17.128906 20.441406 17.109375 20.417969 17.085938 Z M 20.417969 17.085938 "/>
<path style=" stroke:none;fill-rule:nonzero;fill:rgb(0%,0%,0%);fill-opacity:1;" d="M 37.5 19.644531 L 23.808594 19.644531 C 23.152344 19.644531 22.621094 20.179688 22.621094 20.835938 C 22.621094 21.492188 23.152344 22.027344 23.808594 22.027344 L 37.5 22.027344 C 38.15625 22.027344 38.6875 21.492188 38.6875 20.835938 C 38.6875 20.179688 38.15625 19.644531 37.5 19.644531 Z M 37.5 19.644531 "/>
<path style=" stroke:none;fill-rule:nonzero;fill:rgb(0%,0%,0%);fill-opacity:1;" d="M 20.417969 36.132812 C 19.96875 35.660156 19.230469 35.636719 18.75 36.074219 L 14.941406 39.703125 L 13.335938 38.035156 C 12.886719 37.566406 12.148438 37.539062 11.667969 37.976562 C 11.207031 38.460938 11.207031 39.21875 11.667969 39.703125 L 14.109375 42.203125 C 14.320312 42.441406 14.625 42.570312 14.941406 42.558594 C 15.253906 42.554688 15.554688 42.425781 15.773438 42.203125 L 20.417969 37.796875 C 20.878906 37.375 20.90625 36.660156 20.484375 36.199219 C 20.464844 36.175781 20.441406 36.152344 20.417969 36.132812 Z M 20.417969 36.132812 "/>
<path style=" stroke:none;fill-rule:nonzero;fill:rgb(0%,0%,0%);fill-opacity:1;" d="M 37.5 38.691406 L 23.808594 38.691406 C 23.152344 38.691406 22.621094 39.222656 22.621094 39.882812 C 22.621094 40.539062 23.152344 41.070312 23.808594 41.070312 L 37.5 41.070312 C 38.15625 41.070312 38.6875 40.539062 38.6875 39.882812 C 38.6875 39.222656 38.15625 38.691406 37.5 38.691406 Z M 37.5 38.691406 "/>
</g>
</svg>
