<?xml version="1.0" encoding="UTF-8"?>
<svg xmlns="http://www.w3.org/2000/svg" xmlns:xlink="http://www.w3.org/1999/xlink" width="50pt" height="50pt" viewBox="0 0 50 50" version="1.1">
<g id="surface1">
<path style=" stroke:none;fill-rule:nonzero;fill:rgb(0%,0%,0%);fill-opacity:1;" d="M 40.234375 2.4375 L 34.082031 2.4375 L 34.082031 0.691406 C 34.082031 0.316406 33.777344 0.0078125 33.398438 0.0078125 L 16.601562 0.0078125 C 16.222656 0.0078125 15.917969 0.316406 15.917969 0.691406 L 15.917969 2.4375 L 9.765625 2.4375 C 8.308594 2.4375 7.128906 3.617188 7.128906 5.074219 L 7.128906 47.351562 C 7.128906 48.804688 8.308594 49.984375 9.765625 49.988281 L 40.234375 49.988281 C 41.691406 49.984375 42.871094 48.804688 42.871094 47.351562 L 42.871094 5.074219 C 42.871094 3.617188 41.691406 2.4375 40.234375 2.4375 Z M 37.597656 7.710938 L 37.597656 44.714844 L 12.402344 44.714844 L 12.402344 7.710938 Z M 17.285156 1.375 L 32.714844 1.375 L 32.714844 6.34375 L 17.285156 6.34375 Z M 41.503906 47.351562 C 41.503906 48.054688 40.933594 48.621094 40.234375 48.621094 L 9.765625 48.621094 C 9.066406 48.621094 8.496094 48.054688 8.496094 47.351562 L 8.496094 5.074219 C 8.496094 4.371094 9.066406 3.804688 9.765625 3.804688 L 15.917969 3.804688 L 15.917969 6.34375 L 11.71875 6.34375 C 11.539062 6.34375 11.363281 6.414062 11.234375 6.542969 C 11.105469 6.671875 11.035156 6.84375 11.035156 7.027344 L 11.035156 45.398438 C 11.035156 45.578125 11.105469 45.753906 11.234375 45.882812 C 11.363281 46.007812 11.539062 46.082031 11.71875 46.082031 L 38.28125 46.082031 C 38.460938 46.082031 38.636719 46.007812 38.765625 45.882812 C 38.894531 45.753906 38.964844 45.578125 38.964844 45.398438 L 38.964844 7.027344 C 38.964844 6.84375 38.894531 6.671875 38.765625 6.542969 C 38.636719 6.414062 38.460938 6.34375 38.28125 6.34375 L 34.082031 6.34375 L 34.082031 3.804688 L 40.234375 3.804688 C 40.933594 3.804688 41.503906 4.371094 41.503906 5.074219 Z M 41.503906 47.351562 "/>
<path style=" stroke:none;fill-rule:nonzero;fill:rgb(0%,0%,0%);fill-opacity:1;" d="M 20.335938 4.542969 L 29.664062 4.542969 C 30.039062 4.542969 30.347656 4.238281 30.347656 3.859375 C 30.347656 3.480469 30.039062 3.175781 29.664062 3.175781 L 20.335938 3.175781 C 19.960938 3.175781 19.652344 3.480469 19.652344 3.859375 C 19.652344 4.238281 19.960938 4.542969 20.335938 4.542969 Z M 20.335938 4.542969 "/>
<path style=" stroke:none;fill-rule:nonzero;fill:rgb(0%,0%,0%);fill-opacity:1;" d="M 16.601562 24.789062 L 20.070312 24.789062 C 20.25 24.789062 20.421875 24.71875 20.550781 24.589844 C 20.679688 24.460938 20.753906 24.285156 20.75 24.105469 L 20.75 20.640625 C 20.753906 20.457031 20.679688 20.285156 20.550781 20.15625 C 20.421875 20.027344 20.25 19.953125 20.066406 19.953125 L 16.601562 19.953125 C 16.421875 19.953125 16.246094 20.027344 16.117188 20.15625 C 15.988281 20.285156 15.917969 20.457031 15.917969 20.636719 L 15.917969 24.105469 C 15.917969 24.285156 15.988281 24.460938 16.117188 24.589844 C 16.246094 24.71875 16.421875 24.789062 16.601562 24.789062 Z M 17.285156 21.320312 L 19.382812 21.320312 L 19.382812 23.421875 L 17.285156 23.421875 Z M 17.285156 21.320312 "/>
<path style=" stroke:none;fill-rule:nonzero;fill:rgb(0%,0%,0%);fill-opacity:1;" d="M 16.601562 32.46875 L 20.070312 32.46875 C 20.25 32.46875 20.421875 32.398438 20.550781 32.269531 C 20.679688 32.140625 20.753906 31.96875 20.75 31.785156 L 20.75 28.320312 C 20.753906 28.140625 20.679688 27.964844 20.550781 27.835938 C 20.421875 27.707031 20.25 27.636719 20.066406 27.636719 L 16.601562 27.636719 C 16.421875 27.636719 16.246094 27.707031 16.117188 27.835938 C 15.988281 27.964844 15.917969 28.140625 15.917969 28.320312 L 15.917969 31.789062 C 15.917969 32.164062 16.222656 32.46875 16.601562 32.46875 Z M 17.285156 29.003906 L 19.382812 29.003906 L 19.382812 31.101562 L 17.285156 31.101562 Z M 17.285156 29.003906 "/>
<path style=" stroke:none;fill-rule:nonzero;fill:rgb(0%,0%,0%);fill-opacity:1;" d="M 16.601562 40.148438 L 20.070312 40.148438 C 20.25 40.148438 20.421875 40.078125 20.550781 39.949219 C 20.679688 39.820312 20.753906 39.648438 20.75 39.464844 L 20.75 36 C 20.753906 35.816406 20.679688 35.644531 20.550781 35.515625 C 20.421875 35.386719 20.25 35.316406 20.066406 35.316406 L 16.601562 35.316406 C 16.421875 35.316406 16.246094 35.386719 16.117188 35.515625 C 15.988281 35.644531 15.917969 35.816406 15.917969 36 L 15.917969 39.464844 C 15.917969 39.648438 15.988281 39.820312 16.117188 39.949219 C 16.246094 40.078125 16.421875 40.148438 16.601562 40.148438 Z M 17.285156 36.683594 L 19.382812 36.683594 L 19.382812 38.78125 L 17.285156 38.78125 Z M 17.285156 36.683594 "/>
<path style=" stroke:none;fill-rule:nonzero;fill:rgb(0%,0%,0%);fill-opacity:1;" d="M 24.21875 15.375 L 33.398438 15.375 C 33.777344 15.375 34.082031 15.070312 34.082031 14.691406 C 34.082031 14.316406 33.777344 14.007812 33.398438 14.007812 L 24.21875 14.007812 C 23.839844 14.007812 23.535156 14.316406 23.535156 14.691406 C 23.535156 15.070312 23.839844 15.375 24.21875 15.375 Z M 24.21875 15.375 "/>
<path style=" stroke:none;fill-rule:nonzero;fill:rgb(0%,0%,0%);fill-opacity:1;" d="M 24.21875 23.054688 L 33.398438 23.054688 C 33.777344 23.054688 34.082031 22.75 34.082031 22.371094 C 34.082031 21.996094 33.777344 21.6875 33.398438 21.6875 L 24.21875 21.6875 C 23.839844 21.6875 23.535156 21.996094 23.535156 22.371094 C 23.535156 22.75 23.839844 23.054688 24.21875 23.054688 Z M 24.21875 23.054688 "/>
<path style=" stroke:none;fill-rule:nonzero;fill:rgb(0%,0%,0%);fill-opacity:1;" d="M 24.21875 30.734375 L 33.398438 30.734375 C 33.777344 30.734375 34.082031 30.429688 34.082031 30.050781 C 34.082031 29.675781 33.777344 29.367188 33.398438 29.367188 L 24.21875 29.367188 C 23.839844 29.367188 23.535156 29.675781 23.535156 30.050781 C 23.535156 30.429688 23.839844 30.734375 24.21875 30.734375 Z M 24.21875 30.734375 "/>
<path style=" stroke:none;fill-rule:nonzero;fill:rgb(0%,0%,0%);fill-opacity:1;" d="M 24.21875 38.414062 L 33.398438 38.414062 C 33.777344 38.414062 34.082031 38.109375 34.082031 37.730469 C 34.082031 37.355469 33.777344 37.046875 33.398438 37.046875 L 24.21875 37.046875 C 23.839844 37.046875 23.535156 37.355469 23.535156 37.730469 C 23.535156 38.109375 23.839844 38.414062 24.21875 38.414062 Z M 24.21875 38.414062 "/>
<path style=" stroke:none;fill-rule:nonzero;fill:rgb(0%,0%,0%);fill-opacity:1;" d="M 17.460938 16.910156 C 17.609375 17.054688 17.816406 17.125 18.023438 17.101562 C 18.230469 17.074219 18.417969 16.960938 18.527344 16.78125 L 20.652344 13.316406 C 20.785156 13.109375 20.792969 12.84375 20.679688 12.625 C 20.5625 12.40625 20.335938 12.269531 20.089844 12.265625 C 19.839844 12.261719 19.609375 12.390625 19.484375 12.601562 L 17.8125 15.328125 L 17.082031 14.601562 C 16.816406 14.339844 16.386719 14.34375 16.125 14.609375 C 15.859375 14.871094 15.859375 15.296875 16.117188 15.566406 Z M 17.460938 16.910156 "/>
</g>
</svg>
